<?xml version="1.0" encoding="UTF-8" standalone="no"?>
<!-- Created with Inkscape (http://www.inkscape.org/) -->

<svg
   version="1.1"
   id="svg1025"
   width="33"
   height="48"
   viewBox="0 0 33 48"
   sodipodi:docname="IconSample.svg"
   inkscape:version="1.1 (c68e22c387, 2021-05-23)"
   xmlns:inkscape="http://www.inkscape.org/namespaces/inkscape"
   xmlns:sodipodi="http://sodipodi.sourceforge.net/DTD/sodipodi-0.dtd"
   xmlns="http://www.w3.org/2000/svg"
   xmlns:svg="http://www.w3.org/2000/svg">
  <defs
     id="defs1029" />
  <sodipodi:namedview
     id="namedview1027"
     pagecolor="#505050"
     bordercolor="#eeeeee"
     borderopacity="1"
     inkscape:pageshadow="0"
     inkscape:pageopacity="0"
     inkscape:pagecheckerboard="0"
     showgrid="false"
     inkscape:zoom="2.8284272"
     inkscape:cx="128.1631"
     inkscape:cy="-55.684658"
     inkscape:window-width="1920"
     inkscape:window-height="1017"
     inkscape:window-x="1592"
     inkscape:window-y="-8"
     inkscape:window-maximized="1"
     inkscape:current-layer="g1031" />
  <g
     inkscape:groupmode="layer"
     inkscape:label="Image"
     id="g1031">
    <g
       id="g11891"
       transform="matrix(0.35648231,0,0,0.35648231,-16.887675,13.65065)">
      <path
         style="fill:none;stroke:#000000;stroke-width:1.44;stroke-linecap:butt;stroke-linejoin:miter;stroke-miterlimit:4;stroke-dasharray:none;stroke-opacity:1"
         d="m 86.994852,19.147674 h 16.595538 v 57.990598 c 0,0 -7.420535,11.835726 -16.624298,0"
         id="path1646" />
      <path
         style="fill:none;stroke:#000000;stroke-width:1.44;stroke-linecap:butt;stroke-linejoin:miter;stroke-miterlimit:4;stroke-dasharray:none;stroke-opacity:1"
         d="M 86.988973,77.207621 V 19.048851"
         id="path1681" />
      <path
         style="fill:none;stroke:#000000;stroke-width:1.43963px;stroke-linecap:butt;stroke-linejoin:miter;stroke-opacity:1"
         d="m 84.994852,19.147674 h 20.431508 c 0,0 3.47586,-2.062919 0,-4.069694"
         id="path2147" />
      <path
         style="fill:none;stroke:#000000;stroke-width:1.43963px;stroke-linecap:butt;stroke-linejoin:miter;stroke-opacity:1"
         d="M 105.38484,15.119507 H 84.994852 c 0,0 -2.865397,1.827209 0,4.028167"
         id="path2184" />
      <path
         style="fill:none;stroke:#000000;stroke-width:2.48705px;stroke-linecap:butt;stroke-linejoin:miter;stroke-opacity:1"
         d="m 81.198987,-3.3576663 c 0,0 10.617784,-16.3571257 -28.69671,-18.3658957"
         id="path2338" />
      <path
         style="fill:none;stroke:#000000;stroke-width:2.48705px;stroke-linecap:butt;stroke-linejoin:miter;stroke-opacity:1"
         d="m 52.502277,-21.723562 c 0,0 15.783192,41.323264 28.69671,18.3658957"
         id="path2340" />
      <path
         style="fill:none;stroke:#000000;stroke-width:2.48705px;stroke-linecap:butt;stroke-linejoin:miter;stroke-opacity:1"
         d="m 72.016041,-7.6621732 c 0,0 19.513762,2.8696713 18.365895,21.8095022"
         id="path2342" />
      <path
         style="fill:none;stroke:#000000;stroke-width:1.97636px;stroke-linecap:butt;stroke-linejoin:miter;stroke-opacity:1"
         d="m 101.48065,14.453014 c 0,0 1.82434,-10.2618914 13.45449,-9.8058064"
         id="path2346" />
      <path
         style="fill:none;stroke:#000000;stroke-width:1.97636px;stroke-linecap:butt;stroke-linejoin:miter;stroke-opacity:1"
         d="m 106.49759,6.9276282 c 0,0 -1.82435,-14.1386056 23.71636,-13.2264375"
         id="path2350" />
      <path
         style="fill:none;stroke:#000000;stroke-width:1.97636px;stroke-linecap:butt;stroke-linejoin:miter;stroke-opacity:1"
         d="m 130.21395,-6.2988093 c 0,0 -9.8058,32.3819663 -23.71636,13.2264375"
         id="path2352" />
      <path
         style="fill:none;stroke:#000000;stroke-width:1px;stroke-linecap:butt;stroke-linejoin:miter;stroke-opacity:1"
         d="m 52.502277,-21.723562 -0.694585,-1.122592"
         id="path2617" />
      <path
         style="fill:none;stroke:#000000;stroke-width:1px;stroke-linecap:butt;stroke-linejoin:miter;stroke-opacity:1"
         d="m 130.21395,-6.2988093 1.3822,-0.9415753"
         id="path2623" />
      <path
         style="fill:none;stroke:#000000;stroke-width:1px;stroke-linecap:butt;stroke-linejoin:miter;stroke-opacity:1"
         d="m 131.59615,-7.2403846 -1.26923,1.5865384"
         id="path2625" />
      <path
         style="fill:none;stroke:#000000;stroke-width:1px;stroke-linecap:butt;stroke-linejoin:miter;stroke-opacity:1"
         d="m 131.59615,-7.2403846 -2.50961,0.9519231"
         id="path2662" />
      <path
         style="fill:none;stroke:#000000;stroke-width:1.00407px;stroke-linecap:butt;stroke-linejoin:miter;stroke-opacity:1"
         d="m 53.033349,-21.533293 -1.902118,-1.43499 0.722967,1.588661"
         id="path2857" />
      <path
         style="fill:none;stroke:#000000;stroke-width:1.11554px;stroke-linecap:butt;stroke-linejoin:miter;stroke-opacity:1"
         d="m 51.390438,-22.774039 2.638409,0.389423"
         id="path3052" />
      <path
         style="fill:none;stroke:#000000;stroke-width:1px;stroke-linecap:butt;stroke-linejoin:miter;stroke-opacity:1"
         d="M 103.45516,25.129487 H 95.459415"
         id="path3167" />
      <path
         style="fill:none;stroke:#000000;stroke-width:1px;stroke-linecap:butt;stroke-linejoin:miter;stroke-opacity:1"
         d="M 103.9447,36.225624 H 95.296237"
         id="path3169" />
      <path
         style="fill:none;stroke:#000000;stroke-width:1px;stroke-linecap:butt;stroke-linejoin:miter;stroke-opacity:1"
         d="M 103.29198,46.179512 H 95.459415"
         id="path3171" />
      <path
         style="fill:none;stroke:#000000;stroke-width:1px;stroke-linecap:butt;stroke-linejoin:miter;stroke-opacity:1"
         d="M 103.78152,55.480686 H 95.133058"
         id="path3173" />
      <path
         style="fill:none;stroke:#000000;stroke-width:1px;stroke-linecap:butt;stroke-linejoin:miter;stroke-opacity:1"
         d="M 103.29198,63.802789 H 95.622594"
         id="path3175" />
      <path
         style="fill:none;stroke:#000000;stroke-width:1px;stroke-linecap:butt;stroke-linejoin:miter;stroke-opacity:1"
         d="M 102.80245,73.267141 H 95.622594"
         id="path3177" />
    </g>
    <path
       style="opacity:0.874;fill:#d6e7c8;fill-opacity:1;stroke-width:0.0641669;stroke-miterlimit:4;stroke-dasharray:none"
       d="M 8.40029,14.371134 C 7.1067106,13.939131 5.7348051,12.461351 4.2772141,9.929866 3.7486177,9.01182 2.8690818,7.232863 2.5753127,6.487583 c -0.030867,-0.0783 0.1849545,-0.07223 1.2251443,0.03447 3.7758888,0.387338 6.204079,1.184236 7.452167,2.445701 0.659784,0.666855 0.906371,1.422669 0.752475,2.306407 -0.02702,0.155181 -0.05528,0.28215 -0.0628,0.28215 -0.0075,0 -0.210995,-0.09793 -0.452169,-0.217632 -0.766494,-0.380418 -1.560007,-0.658218 -2.3579093,-0.825472 -0.215639,-0.0452 -0.296871,-0.04795 -0.3083198,-0.01044 -0.019999,0.06553 -0.1116823,0.726425 -0.1116823,0.805054 0,0.0385 0.1466319,0.09532 0.4118936,0.15959 0.2265416,0.05489 0.6388597,0.178059 0.9162618,0.273711 0.511315,0.176309 1.412031,0.589294 1.462165,0.670414 0.05041,0.08156 -0.487851,0.811126 -0.917295,1.243306 -0.346805,0.349014 -0.490279,0.459103 -0.7812985,0.599498 -0.3198319,0.154295 -0.3977146,0.173347 -0.757525,0.185306 -0.2988187,0.0099 -0.4635126,-0.0075 -0.646124,-0.06852 z"
       id="path15826" />
    <path
       style="opacity:0.874;fill:#d6e7c8;fill-opacity:1;stroke-width:0.0641669;stroke-miterlimit:4;stroke-dasharray:none"
       d="M 23.546862,17.780814 C 23.100358,17.61946 22.63815,17.296561 22.161715,16.813147 21.561759,16.204406 21.566243,16.217934 21.910941,16.05664 c 0.154417,-0.07226 0.440519,-0.172233 0.635786,-0.22217 0.38777,-0.09917 1.22118,-0.186118 1.416243,-0.147757 0.114135,0.02245 0.122566,0.01381 0.122929,-0.125916 2.14e-4,-0.08251 0.0134,-0.258353 0.0293,-0.390765 l 0.02891,-0.240749 -0.641999,0.0268 c -0.670158,0.02798 -1.094437,0.108392 -1.66525,0.315612 -0.170659,0.06195 -0.318803,0.104127 -0.329212,0.09372 -0.04094,-0.04095 0.10261,-0.464829 0.286459,-0.845843 0.811785,-1.682379 2.99023,-2.636846 6.22386,-2.726932 0.752388,-0.02096 0.969186,-0.01473 0.969186,0.02786 0,0.09469 -0.560418,1.470183 -0.840446,2.062804 -0.951829,2.014343 -2.092772,3.406466 -3.169979,3.867857 -0.37292,0.15973 -1.032063,0.173395 -1.429854,0.02964 z"
       id="path15865" />
    <path
       style="opacity:0.874;fill:#ffffff;fill-opacity:1;stroke-width:0.181491;stroke-miterlimit:4;stroke-dasharray:none"
       d="M 16.426002,42.560768 C 16.050348,42.448354 15.581181,42.151247 15.134138,41.742675 L 14.432155,41.101101 V 30.967888 20.834675 h 2.646746 2.646746 v 0.756213 0.756213 h -1.323373 c -1.239349,0 -1.323373,0.016 -1.323373,0.252072 0,0.236066 0.08402,0.252071 1.323373,0.252071 h 1.323373 v 1.764497 1.764497 h -1.323373 c -1.092308,0 -1.323373,0.03301 -1.323373,0.189053 0,0.156044 0.231065,0.189054 1.323373,0.189054 h 1.323373 v 1.575444 1.575444 h -1.332615 c -1.20122,0 -1.328451,0.02175 -1.290386,0.220562 0.03638,0.190055 0.220712,0.22553 1.332614,0.25648 l 1.290387,0.03592 v 1.381981 1.381982 h -1.386391 c -1.302368,0 -1.386391,0.01527 -1.386391,0.25207 0,0.236795 0.08402,0.252072 1.386391,0.252072 h 1.386391 v 1.260355 1.260355 h -1.323373 c -1.092308,0 -1.323373,0.03301 -1.323373,0.189054 0,0.156044 0.231065,0.189053 1.323373,0.189053 h 1.323373 v 1.445 1.444999 l -1.290387,0.03592 c -1.111902,0.03095 -1.296226,0.06642 -1.332614,0.25648 -0.03807,0.198814 0.08917,0.220561 1.290386,0.220561 h 1.332615 v 0.552329 c 0,0.480697 -0.06863,0.620966 -0.529184,1.081517 -0.933993,0.933993 -1.798492,1.225703 -2.770461,0.934845 z"
       id="path15904" />
    <path
       style="opacity:0.874;fill:#d0e8f5;fill-opacity:1;stroke-width:0.0160417;stroke-miterlimit:4;stroke-dasharray:none"
       d="m 14.432638,30.68939 v -6.076909 h 2.645768 2.645765 v 0.878225 0.878225 l -1.316304,0.0073 c -0.723968,0.004 -1.318602,0.0096 -1.321409,0.01243 -0.0072,0.0072 -0.0064,0.351325 7.65e-4,0.358521 0.0033,0.0033 0.597875,0.0088 1.321409,0.01235 l 1.315516,0.0065 v 1.567958 1.567958 l -1.116791,0.0066 c -0.614236,0.0036 -1.195748,0.0095 -1.292249,0.01317 l -0.175455,0.0066 v 0.02731 c 0,0.01502 -0.01003,0.03808 -0.02228,0.05123 -0.03017,0.03237 -0.03017,0.122081 0,0.181244 0.01225,0.02404 0.02228,0.05768 0.02228,0.07477 0,0.02981 0.0022,0.03106 0.05516,0.03106 0.03034,0 0.08423,0.0077 0.119755,0.017 0.163873,0.04312 0.485229,0.06305 1.429258,0.08863 0.333924,0.0091 0.691105,0.01971 0.793732,0.02367 l 0.186594,0.0072 v 1.373244 1.373245 l -1.166922,0.0058 c -1.170761,0.0058 -1.29735,0.01001 -1.456564,0.04817 -0.06358,0.01524 -0.08415,0.02592 -0.111401,0.05781 -0.03067,0.0359 -0.03369,0.04698 -0.03674,0.134684 -0.0057,0.162928 0.038,0.206371 0.24304,0.2418 0.09216,0.01593 0.260047,0.01887 1.317109,0.02309 l 1.211481,0.0049 v 1.25808 1.258079 h -1.264398 -1.264398 v 0.03118 c 0,0.02527 -0.0071,0.03374 -0.03739,0.0447 -0.05109,0.01848 -0.07478,0.04774 -0.08196,0.101256 -0.0076,0.0567 0.01424,0.09275 0.07495,0.123724 0.02736,0.01396 0.0444,0.03048 0.0444,0.04305 0,0.01906 0.01884,0.02087 0.286857,0.02757 0.157771,0.004 0.72675,0.01047 1.264398,0.01452 l 0.977541,0.0074 v 0.08183 0.08182 h -2.645767 -2.645768 z"
       id="path21002" />
    <path
       style="opacity:0.874;fill:#497ea8;fill-opacity:0.976471;stroke-width:0;stroke-miterlimit:4;stroke-dasharray:none"
       d="m 16.756603,42.614368 c -0.601257,-0.107282 -1.015769,-0.360412 -1.883931,-1.15046 L 14.460489,41.088813 V 38.933126 36.77744 h 2.629057 2.629057 v 1.330135 1.330137 l -0.407887,0.02895 c -0.224342,0.01593 -0.62037,0.02911 -0.880067,0.02929 -0.572112,4.28e-4 -1.194667,0.06728 -1.279158,0.137406 -0.102373,0.08496 -0.07803,0.292729 0.03832,0.326987 0.05515,0.01624 0.649216,0.04166 1.32016,0.05651 l 1.2199,0.02698 -0.0206,0.427857 c -0.02652,0.550562 -0.09393,0.691275 -0.546958,1.141689 -0.799043,0.794424 -1.628686,1.139629 -2.405704,1.000987 z"
       id="path25491" />
    <path
       style="opacity:0.874;fill:#d3d7db;fill-opacity:1;stroke-width:0;stroke-miterlimit:4;stroke-dasharray:none"
       d="m 13.408007,20.106321 c -0.102149,-0.104484 -0.182821,-0.261453 -0.183577,-0.357197 -7.65e-4,-0.09775 0.05505,-0.206343 0.168327,-0.327445 L 13.4974,19.309807 h 3.582259 3.58226 l 0.125443,0.114648 c 0.136907,0.125127 0.190069,0.208283 0.190069,0.297316 0,0.09256 -0.08537,0.234407 -0.217469,0.361329 l -0.122715,0.117913 h -3.568334 -3.568332 z"
       id="path61383" />
    <path
       style="opacity:0.874;fill:#6695b9;fill-opacity:1;stroke-width:0;stroke-miterlimit:4;stroke-dasharray:none"
       d="m 16.421142,43.167713 c -0.345347,-0.09174 -0.854814,-0.340842 -1.198117,-0.585818 -0.307329,-0.219306 -0.919112,-0.807675 -1.136678,-1.093175 -0.123859,-0.162533 -0.12545,-0.170975 -0.0483,-0.256222 0.07758,-0.08572 0.07652,-0.08815 -0.03853,-0.08815 h -0.11831 V 30.917762 20.691175 h -0.222801 c -0.219981,0 -0.222802,-0.0018 -0.222802,-0.13969 v -0.13969 l -0.09486,0.120591 -0.09486,0.120591 -0.155681,-0.148002 c -0.191272,-0.181837 -0.366699,-0.540425 -0.366699,-0.749565 0,-0.225384 0.179244,-0.575689 0.393308,-0.768666 l 0.185362,-0.167101 3.041112,-0.0048 c 2.127889,-0.0033 2.980893,-0.01805 2.840589,-0.049 -0.110288,-0.02433 -0.204806,-0.04819 -0.210043,-0.05303 -0.0052,-0.0049 0.03158,-0.148212 0.08184,-0.318617 0.227044,-0.769962 0.827616,-1.726672 1.398601,-2.227967 0.260371,-0.228596 0.289214,-0.270759 0.289214,-0.422797 0,-0.420617 0.17729,-1.068804 0.432257,-1.580368 1.007137,-2.020722 3.619817,-3.094489 7.534325,-3.096481 0.705225,-3.6e-4 0.93923,-0.01527 1.065151,-0.06788 0.08875,-0.03708 0.16436,-0.06215 0.168013,-0.0557 0.0037,0.0065 0.04244,0.06885 0.0862,0.138673 0.07901,0.126097 0.07862,0.128108 -0.05909,0.299468 -0.07892,0.0982 -0.207112,0.369841 -0.297584,0.630576 -0.240305,0.69254 -0.573876,1.500657 -0.911586,2.208431 -1.881792,3.94388 -4.098213,5.274101 -6.302112,3.782314 -0.298735,-0.202208 -1.030655,-0.897389 -1.269968,-1.20622 -0.08578,-0.110696 -0.177974,-0.202025 -0.204877,-0.202952 -0.135731,-0.0047 -0.769121,0.791601 -1.008838,1.268281 -0.114488,0.22766 -0.345895,0.840569 -0.345895,0.916142 0,0.02372 0.221111,0.0419 0.50962,0.0419 h 0.50962 l 0.01543,0.144821 0.01543,0.144821 0.06139,-0.122541 c 0.03376,-0.0674 0.08542,-0.122541 0.114805,-0.122541 0.09326,0 0.452751,0.34785 0.531922,0.514692 0.173799,0.366251 0.0564,0.753835 -0.334883,1.105634 -0.218478,0.196432 -0.242814,0.206646 -0.492381,0.206646 H 20.297902 V 30.929469 41.16779 l -0.159718,0.237168 c -0.207348,0.307893 -0.730429,0.857419 -1.051252,1.104398 -0.36129,0.278132 -0.852796,0.53101 -1.23895,0.637436 -0.398884,0.109936 -1.055437,0.119549 -1.426825,0.0209 z m 1.258567,-0.460839 c 0.399739,-0.102237 0.673184,-0.23478 1.036289,-0.502309 0.280222,-0.206463 0.786024,-0.707064 0.978677,-0.968614 l 0.113048,-0.153478 v -2.263917 -2.263918 l -1.191987,-6.06e-4 c -0.655593,-3.56e-4 -1.237105,-0.0127 -1.292249,-0.02748 -0.06658,-0.01785 -0.100261,-0.06079 -0.100261,-0.127875 0,-0.06708 0.03368,-0.110032 0.100261,-0.127876 0.05515,-0.01477 0.636656,-0.02714 1.292249,-0.02747 l 1.191987,-6.07e-4 v -1.336812 -1.336809 h -1.381369 -1.381368 v -0.155966 -0.15596 h 1.381368 1.381369 v -1.492098 -1.492095 l -1.303388,-0.01181 -1.303388,-0.01181 v -0.133687 -0.133681 l 1.303388,-0.01181 1.303388,-0.01181 v -1.625778 -1.625777 h -1.244787 c -1.179301,0 -1.47339,-0.02615 -1.47339,-0.131011 0,-0.130667 0.219161,-0.156683 1.459349,-0.17324 l 1.258828,-0.0168 v -1.800136 -1.800125 h -1.314529 -1.314527 v -0.155288 -0.155288 l 1.303388,-0.01181 1.303388,-0.01181 0.01212,-0.857785 0.01208,-0.857786 h -2.719136 -2.719139 v 10.201951 10.201951 l 0.456743,0.465771 c 0.985543,1.005024 1.879126,1.350181 2.851598,1.101465 z m 3.055777,-22.553692 c 0.159027,-0.12509 0.274716,-0.308645 0.275073,-0.436435 1.78e-4,-0.06341 -0.06874,-0.174532 -0.172705,-0.278502 l -0.173001,-0.172999 h -3.587729 -3.58773 l -0.138296,0.157512 c -0.104515,0.119036 -0.138297,0.200293 -0.138297,0.332652 0,0.132357 0.03378,0.213615 0.138297,0.332651 l 0.138296,0.157511 h 3.56432 c 3.538894,0 3.565156,-6.76e-4 3.681772,-0.09239 z m 4.154688,-2.326666 c 0.798748,-0.272305 1.540602,-0.969174 2.351232,-2.208653 0.566735,-0.866561 1.255955,-2.28521 1.678561,-3.455059 l 0.159195,-0.440679 -0.970634,0.02492 c -1.420842,0.03648 -2.497593,0.19849 -3.503148,0.52709 -1.689103,0.551972 -2.813729,1.609486 -3.123424,2.937034 -0.03419,0.146549 -0.05542,0.266452 -0.0472,0.266452 0.0082,0 0.164599,-0.05992 0.347492,-0.133152 0.544113,-0.217873 1.018976,-0.314014 1.69758,-0.34369 l 0.619727,-0.0271 -0.02891,0.240832 c -0.0159,0.132457 -0.02909,0.283288 -0.0293,0.335178 -3.57e-4,0.08989 -0.02724,0.09547 -0.568533,0.118085 -0.360154,0.01505 -0.693351,0.05702 -0.910163,0.114642 -0.369737,0.09827 -1.017112,0.35365 -1.016998,0.40119 1.78e-4,0.06712 0.624461,0.742673 0.908966,0.983588 0.641151,0.542916 1.143428,0.758944 1.76458,0.758944 0.275226,0 0.458643,-0.02723 0.670982,-0.09962 z"
       id="path109572" />
    <path
       style="opacity:0.874;fill:#6695b9;fill-opacity:1;stroke-width:0;stroke-miterlimit:4;stroke-dasharray:none"
       d="m 15.056776,18.654165 -0.138959,-0.01754 -0.02485,-0.810839 c -0.03601,-1.17506 -0.204992,-1.865807 -0.683477,-2.793768 -0.263522,-0.511069 -0.565739,-0.938784 -0.964891,-1.365574 -0.281511,-0.301005 -0.838639,-0.77332 -0.912182,-0.77332 -0.02536,0 -0.112417,0.105273 -0.193477,0.233941 -0.539695,0.856669 -1.259756,1.577954 -1.889401,1.892617 -0.5124261,0.256083 -0.7113206,0.302188 -1.2922483,0.29955 C 8.4946073,15.317134 8.3745413,15.300344 8.0660853,15.194614 5.9029817,14.45317 3.6611623,11.380035 1.4710801,6.154038 L 1.2145871,5.54199 1.3205943,5.45369 c 0.1274116,-0.1061215 0.099368,-0.1050062 0.5961713,-0.0237 0.2205733,0.0361 0.7419291,0.09529 1.1585673,0.131541 3.8626535,0.336061 6.3599909,0.997621 8.0374861,2.129178 0.413789,0.279122 1.041222,0.897134 1.274806,1.255666 0.354322,0.543855 0.553515,1.207893 0.555672,1.852412 7.65e-4,0.238753 -0.07514,0.692566 -0.205248,1.226626 -0.01677,0.06881 0.02821,0.126403 0.188773,0.24171 0.526418,0.378045 1.376957,1.293533 1.76552,1.900339 0.222889,0.348078 0.532018,1.009822 0.681883,1.459688 0.258524,0.776039 0.336927,1.248426 0.365306,2.201023 l 0.02555,0.857785 -0.284676,-0.0071 c -0.156572,-0.0039 -0.347208,-0.01502 -0.423635,-0.02467 z M 9.8511894,14.278287 C 10.1644,14.123085 10.31558,14.010073 10.62383,13.700712 c 0.382569,-0.383949 1.001,-1.235489 0.953311,-1.312651 -0.03809,-0.06163 -0.964885,-0.496709 -1.39444,-0.65461 C 9.9743823,11.656871 9.5743205,11.534871 9.2936749,11.462333 9.01303,11.389793 8.7767024,11.323738 8.7685035,11.315539 c -0.0082,-0.0082 0.00911,-0.195309 0.038469,-0.4158 l 0.053374,-0.400893 0.3742465,0.08178 c 0.583956,0.127611 1.5231179,0.45788 2.1367769,0.751426 0.307758,0.147217 0.575478,0.25783 0.594932,0.245806 0.01946,-0.01202 0.05984,-0.166876 0.08973,-0.344116 C 12.376551,9.333478 10.756465,7.893417 7.3553473,7.055406 6.1742784,6.764399 4.3158361,6.489544 2.9516431,6.404117 l -0.4801745,-0.03007 0.152635,0.351979 c 0.9167286,2.113995 2.1006069,4.207788 3.1216847,5.520974 0.4252249,0.546872 1.1518999,1.291306 1.5404936,1.578139 0.6881384,0.507937 1.1495845,0.680176 1.7672964,0.659661 0.3785797,-0.01257 0.43647,-0.02756 0.7976104,-0.206514 z"
       id="path109611" />
    <path
       style="opacity:0.874;fill:#6695b9;fill-opacity:1;stroke-width:0;stroke-miterlimit:4;stroke-dasharray:none"
       d="m 22.130123,17.789724 c -0.0043,-0.0035 -0.02378,-0.0196 -0.04328,-0.03583 -0.344361,-0.286718 -0.697878,-0.65738 -1.035081,-1.085287 -0.04947,-0.06278 -0.05188,-0.06598 -0.04975,-0.06595 0.009,9.9e-5 0.08541,0.07357 0.12699,0.122078 0.01255,0.01462 0.04106,0.0494 0.06339,0.07728 0.02235,0.02788 0.05105,0.06289 0.06381,0.07779 0.199516,0.232942 0.590142,0.615934 0.908003,0.890253 l 0.03009,0.02598 h -0.02816 -0.02816 z"
       id="path109650" />
    <path
       style="opacity:0.874;fill:#6695b9;fill-opacity:1;stroke-width:0;stroke-miterlimit:4;stroke-dasharray:none"
       d="m 24.029811,18.625144 c -0.0032,-2.6e-4 -0.01715,-0.0015 -0.03133,-0.0026 -0.6133,-0.05084 -1.225943,-0.318885 -1.828049,-0.799807 l -0.0324,-0.02588 0.0287,-3.92e-4 0.0287,-3.92e-4 0.0093,0.0082 c 0.03916,0.03445 0.138911,0.114719 0.188904,0.151995 0.05016,0.0374 0.07785,0.05646 0.144678,0.09954 0.407153,0.262487 0.810534,0.428453 1.218585,0.501366 0.08303,0.01484 0.182334,0.02763 0.255876,0.03296 l 0.02331,0.0017 v 0.01714 c 0,0.0094 -1.57e-4,0.01704 -3.49e-4,0.01691 -1.93e-4,-1.29e-4 -0.0028,-4.63e-4 -0.0059,-6.95e-4 z"
       id="path109689" />
    <path
       style="opacity:0.874;fill:#6695b9;fill-opacity:1;stroke-width:0;stroke-miterlimit:4;stroke-dasharray:none"
       d="m 24.134945,18.630687 c -0.0073,-2.14e-4 -0.03112,-0.0013 -0.05295,-0.0025 -0.02185,-0.0012 -0.04112,-0.0021 -0.04282,-0.0021 -0.0028,0 -0.0032,-3.57e-4 -0.0032,-0.01691 v -0.01691 l 0.01775,9.73e-4 c 0.0098,5.34e-4 0.02809,0.0016 0.04073,0.0023 0.04026,0.0024 0.164207,0.0032 0.212356,0.0015 0.251528,-0.0093 0.486242,-0.05063 0.732939,-0.129104 0.02317,-0.0074 0.08845,-0.02954 0.09804,-0.03329 0.0022,-9.03e-4 0.0025,4.64e-4 0.0025,0.0171 v 0.01805 l -0.05257,0.01753 c -0.260014,0.08669 -0.508732,0.132643 -0.773884,0.142985 -0.0319,0.0012 -0.142457,0.0015 -0.178939,4.28e-4 z"
       id="path109728" />
    <path
       style="opacity:0.874;fill:#6695b9;fill-opacity:1;stroke-width:0;stroke-miterlimit:4;stroke-dasharray:none"
       d="m 25.141226,18.451708 c -6.94e-4,-0.0088 -6.94e-4,-0.01664 2.82e-4,-0.01744 10e-4,-7.64e-4 0.02032,-0.0084 0.04305,-0.01684 0.130083,-0.04844 0.28377,-0.119344 0.417494,-0.192616 0.343182,-0.188045 0.681137,-0.444879 1.011137,-0.768423 l 0.0582,-0.05706 6.95e-4,0.02138 c 3.56e-4,0.01825 4.6e-5,0.02195 -0.0028,0.02531 -0.0063,0.007 -0.108959,0.105992 -0.141473,0.136362 -0.411802,0.384619 -0.832127,0.663999 -1.262219,0.838969 -0.03173,0.01291 -0.107565,0.04177 -0.118441,0.04507 -0.004,0.0012 -0.0043,4.64e-4 -0.0056,-0.01471 z"
       id="path109767" />
    <path
       style="opacity:0.874;fill:#6695b9;fill-opacity:1;stroke-width:0;stroke-miterlimit:4;stroke-dasharray:none"
       d="m 29.894804,11.50615 c 0.0074,-0.02091 0.05571,-0.0949 0.0947,-0.144988 0.0619,-0.07952 0.07176,-0.09359 0.08355,-0.11935 0.01886,-0.04118 0.01387,-0.07046 -0.02199,-0.129046 -0.0091,-0.01486 -0.01593,-0.02764 -0.01519,-0.02839 0.0018,-0.0019 0.118873,0.09183 0.12042,0.09647 0.001,0.0032 -0.241595,0.310584 -0.258307,0.327199 -0.0053,0.0053 -0.0056,0.0051 -0.0032,-0.0019 z"
       id="path109806" />
    <path
       style="opacity:0.874;fill:#6695b9;fill-opacity:1;stroke-width:0;stroke-miterlimit:4;stroke-dasharray:none"
       d="m 28.477932,14.790767 c 0.08523,-0.162872 0.205377,-0.404797 0.299984,-0.604001 0.174106,-0.366612 0.357441,-0.783546 0.518019,-1.178063 l 0.01729,-0.04247 0.01486,-3.96e-4 0.01486,-3.96e-4 -0.0028,0.0074 c -0.0015,0.004 -0.01472,0.03663 -0.02923,0.0724 -0.238836,0.589766 -0.494752,1.152008 -0.758877,1.667235 -0.01846,0.036 -0.03762,0.07313 -0.0426,0.08251 l -0.0091,0.01706 h -0.01675 -0.01675 z"
       id="path109845" />
    <path
       style="opacity:0.874;fill:#6695b9;fill-opacity:1;stroke-width:0;stroke-miterlimit:4;stroke-dasharray:none"
       d="m 27.505296,16.399968 c 0.317701,-0.444659 0.628507,-0.954601 0.925217,-1.51801 l 0.03656,-0.06942 h 0.0165 0.0165 l -0.01169,0.02216 c -0.131061,0.248635 -0.224306,0.417962 -0.338627,0.614915 -0.211493,0.36437 -0.405765,0.66608 -0.647029,1.004838 l -0.006,0.0084 h -0.01818 -0.01818 z"
       id="path109884" />
    <path
       style="opacity:0.874;fill:#6695b9;fill-opacity:1;stroke-width:0;stroke-miterlimit:4;stroke-dasharray:none"
       d="m 26.672471,17.420078 -1e-4,-0.02247 0.0429,-0.04351 c 0.221301,-0.224405 0.468589,-0.517179 0.690438,-0.817441 0.02559,-0.03466 0.04855,-0.06551 0.05097,-0.06856 0.0043,-0.0054 0.0048,-0.0055 0.02182,-0.0049 l 0.01743,6.16e-4 -0.02217,0.03052 c -0.240968,0.331823 -0.50304,0.644597 -0.755728,0.901942 l -0.04544,0.04628 z"
       id="path109923" />
    <path
       style="opacity:0.874;fill:#6695b9;fill-opacity:1;stroke-width:0;stroke-miterlimit:4;stroke-dasharray:none"
       d="m 29.315655,12.961976 c 6.95e-4,-0.0019 0.01448,-0.03721 0.03098,-0.07837 0.113108,-0.282155 0.210735,-0.541117 0.306617,-0.813323 0.05161,-0.14652 0.07656,-0.212223 0.114788,-0.302288 0.02296,-0.05409 0.05184,-0.118258 0.05279,-0.117305 0.0028,0.0027 -0.106121,0.322205 -0.179774,0.527905 -0.08656,0.241749 -0.212122,0.573379 -0.291161,0.769014 l -0.0067,0.01674 -0.01422,5.85e-4 c -0.0129,5.28e-4 -0.01416,2.51e-4 -0.01326,-0.003 z"
       id="path109962" />
    <path
       style="opacity:0.874;fill:#6695b9;fill-opacity:1;stroke-width:0;stroke-miterlimit:4;stroke-dasharray:none"
       d="m 27.572343,11.084765 v -0.01366 l 0.0084,-10e-4 c 0.0084,-10e-4 0.07499,-0.0046 0.190529,-0.01 0.146411,-0.0069 0.309185,-0.01242 0.505129,-0.01721 0.136115,-0.0033 0.73036,-0.0033 0.870433,1.2e-5 0.252187,0.006 0.303445,0.0076 0.297363,0.0094 -0.0036,0.0011 -0.150752,0.0068 -0.225486,0.0088 -0.04061,10e-4 -0.225828,0.0028 -0.411583,0.0038 -0.405566,0.0023 -0.549845,0.0047 -0.790678,0.01289 -0.129823,0.0044 -0.27863,0.01119 -0.390904,0.01769 -0.02763,0.0016 -0.05089,0.0029 -0.0517,0.0029 -6.95e-4,7e-6 -0.0015,-0.0061 -0.0015,-0.01365 z"
       id="path110001" />
    <path
       style="opacity:0.874;fill:#6695b9;fill-opacity:1;stroke-width:0;stroke-miterlimit:4;stroke-dasharray:none"
       d="m 21.572211,13.476238 c 0.0044,-0.0074 0.0842,-0.10614 0.119571,-0.147954 0.123593,-0.146125 0.272285,-0.299779 0.419847,-0.433848 0.3101,-0.281747 0.668048,-0.53292 1.07293,-0.752875 0.112499,-0.06111 0.248839,-0.129708 0.365202,-0.183734 0.01704,-0.0079 0.0313,-0.01439 0.03169,-0.01439 3.57e-4,0 6.95e-4,0.007 6.95e-4,0.01566 l -2.8e-5,0.01566 -0.02121,0.0097 c -0.07411,0.03384 -0.215005,0.103251 -0.29705,0.146343 -0.583729,0.306585 -1.063515,0.670247 -1.453107,1.101408 -0.06068,0.06715 -0.135311,0.155801 -0.185503,0.220342 l -0.01975,0.02539 -0.01715,2.3e-5 c -0.01333,1.8e-5 -0.0169,-3.62e-4 -0.01611,-0.0017 z"
       id="path110040" />
    <path
       style="opacity:0.874;fill:#6695b9;fill-opacity:1;stroke-width:0;stroke-miterlimit:4;stroke-dasharray:none"
       d="m 23.582468,11.958329 -3.49e-4,-0.01572 0.01636,-0.0074 c 0.245459,-0.110894 0.468457,-0.199036 0.720621,-0.284834 l 0.05814,-0.01978 -1.1e-5,0.01612 -1.1e-5,0.01612 -0.04066,0.01367 c -0.251288,0.08454 -0.518105,0.189665 -0.742435,0.292521 -0.006,0.0028 -0.01105,0.005 -0.01112,0.005 -9.7e-5,-4e-6 -3.32e-4,-0.0071 -3.57e-4,-0.01573 z"
       id="path110079" />
    <path
       style="opacity:0.874;fill:#6695b9;fill-opacity:1;stroke-width:0;stroke-miterlimit:4;stroke-dasharray:none"
       d="m 24.378129,11.646226 v -0.01584 l 0.05169,-0.01673 c 0.165191,-0.05346 0.306511,-0.09529 0.480022,-0.142065 0.05364,-0.01446 0.256835,-0.06594 0.260271,-0.06594 0.001,0 0.0018,0.0069 0.0018,0.01534 v 0.01534 l -0.0704,0.01745 c -0.180223,0.04466 -0.362382,0.09504 -0.528268,0.146103 -0.04615,0.01421 -0.184974,0.05838 -0.192496,0.06126 -0.0018,6.95e-4 -0.0025,-0.0031 -0.0025,-0.01491 z"
       id="path110118" />
    <path
       style="opacity:0.874;fill:#6695b9;fill-opacity:1;stroke-width:0;stroke-miterlimit:4;stroke-dasharray:none"
       d="m 25.173634,11.420297 6.95e-4,-0.01524 0.02089,-0.005 c 0.200746,-0.0484 0.491675,-0.107135 0.736639,-0.148722 0.492865,-0.08367 1.08674,-0.149717 1.604866,-0.178474 l 0.03411,-0.0019 v 0.0139 0.0139 l -0.0369,0.0019 c -0.09281,0.0048 -0.296286,0.01982 -0.440729,0.03251 -0.659914,0.05799 -1.273423,0.152567 -1.838932,0.283486 l -0.08158,0.01889 z"
       id="path110157" />
    <path
       style="opacity:0.874;fill:#6695b9;fill-opacity:1;stroke-width:0;stroke-miterlimit:4;stroke-dasharray:none"
       d="m 20.716283,15.838548 c 0.0091,-0.449885 0.107426,-0.924172 0.282127,-1.36079 0.09014,-0.225276 0.19629,-0.435267 0.324787,-0.642486 l 0.02046,-0.03299 h 0.01675 c 0.0092,0 0.01637,6.65e-4 0.0159,0.0015 -3.56e-4,8.34e-4 -0.0128,0.02097 -0.02738,0.0448 -0.101876,0.1662 -0.194543,0.345446 -0.271797,0.525724 -0.179656,0.419245 -0.302899,0.882662 -0.329446,1.238774 -0.0018,0.02275 -0.0039,0.07414 -0.0049,0.11422 -0.0022,0.09106 -0.0063,0.119115 -0.02171,0.151222 l -0.0059,0.01223 z"
       id="path110196" />
    <path
       style="opacity:0.874;fill:#6695b9;fill-opacity:1;stroke-width:0;stroke-miterlimit:4;stroke-dasharray:none"
       d="m 21.346447,13.799572 c 0,-0.0026 0.07302,-0.112651 0.104353,-0.157297 0.04547,-0.06477 0.117967,-0.161501 0.122299,-0.163165 0.0022,-8.34e-4 0.0097,-0.001 0.01679,-6.02e-4 l 0.01294,8.34e-4 -0.03867,0.05153 c -0.05025,0.06695 -0.118064,0.16405 -0.155755,0.223005 l -0.02994,0.04683 -0.016,1.54e-4 c -0.0088,8.4e-5 -0.016,-5.07e-4 -0.016,-0.0013 z"
       id="path110235" />
    <path
       style="opacity:0.874;fill:#d7e8c8;fill-opacity:1;stroke-width:0;stroke-miterlimit:4;stroke-dasharray:none"
       d="m 20.87885,14.824187 c 0.107083,-0.356579 0.252723,-0.678931 0.450789,-0.997733 l 0.01494,-0.02402 h 0.0062 c 0.0073,0 0.0083,-0.0024 0.0015,-0.0031 l -0.0049,-4.32e-4 0.02691,-0.04108 c 0.03515,-0.05367 0.07281,-0.108967 0.0996,-0.146213 0.0262,-0.03642 0.0738,-0.100178 0.08864,-0.118711 l 0.01088,-0.01358 h 0.01444 0.01444 l -0.03112,0.04143 c -0.06455,0.08597 -0.13044,0.180746 -0.178561,0.256874 -0.0113,0.01789 -0.01444,0.0219 -0.01707,0.02193 -0.0018,2.4e-5 -0.0042,9.73e-4 -0.0052,0.002 -0.0018,0.0017 -0.0015,0.0021 0.0015,0.0024 0.0035,4.34e-4 0.0032,6.94e-4 -0.0064,0.01645 -0.161878,0.261323 -0.288358,0.525894 -0.396975,0.830401 -0.01422,0.03986 -0.04865,0.142514 -0.05693,0.169769 l -0.0046,0.01497 h -0.01565 -0.01561 z m 0.0318,0.007 c 0.0018,-0.0082 0.04241,-0.130377 0.05706,-0.171626 0.09354,-0.263431 0.195937,-0.487964 0.324734,-0.712098 0.01936,-0.03372 0.05608,-0.09523 0.067,-0.112268 0.0035,-0.0054 0.0063,-0.01053 0.0063,-0.01149 4e-6,-9.73e-4 3.57e-4,-0.0017 0.001,-0.0017 6.95e-4,0 0.004,-0.0049 0.0077,-0.01079 0.0037,-0.0059 0.01697,-0.02677 0.02955,-0.0463 0.15107,-0.234373 0.338409,-0.467519 0.536339,-0.667483 0.04619,-0.04667 0.09127,-0.09135 0.102531,-0.101648 l 0.0071,-0.0065 h 0.304467 0.304468 v 0.171007 0.171008 l -0.03098,0.02722 c -0.176127,0.154711 -0.343129,0.329351 -0.486491,0.508746 -0.231778,0.290008 -0.416718,0.613729 -0.539583,0.944464 l -0.0089,0.02402 H 21.25132 20.9097 l 10e-4,-0.0045 z"
       id="path110274" />
    <path
       style="opacity:0.874;fill:#d7e8c8;fill-opacity:1;stroke-width:0;stroke-miterlimit:4;stroke-dasharray:none"
       d="m 23.811954,17.809822 c -0.363006,-0.07544 -0.740878,-0.277509 -1.20131,-0.64242 -0.38114,-0.30207 -0.899936,-0.840583 -0.899936,-0.934136 0,-0.08552 0.636225,-0.321207 1.113729,-0.412569 0.26004,-0.04975 0.654633,-0.09046 0.876871,-0.09046 0.351956,0 0.404073,-0.01512 0.404073,-0.11724 0,-0.06448 0.01804,-0.248809 0.04007,-0.409616 l 0.04007,-0.292375 h -0.34106 c -0.554672,0 -1.356943,0.121016 -1.858799,0.280385 l -0.468739,0.148852 0.03897,-0.135846 c 0.0955,-0.332909 0.473687,-1.046685 0.716248,-1.35183 0.717645,-0.902801 2.128773,-1.567398 3.975837,-1.872492 0.329268,-0.05439 1.074897,-0.116313 1.656958,-0.137611 l 1.058292,-0.03873 -0.13772,0.372051 c -1.018388,2.751174 -2.46147,4.862106 -3.74336,5.475766 -0.359587,0.172141 -0.887131,0.237873 -1.270203,0.158268 z"
       id="path115276" />
    <path
       style="opacity:0.874;fill:#5982a2;fill-opacity:1;stroke-width:0;stroke-miterlimit:4;stroke-dasharray:none"
       d="m 20.965381,14.689461 c 0.194294,-0.578988 0.517591,-1.109115 0.940929,-1.5429 l 0.149491,-0.153175 h 0.299106 0.299103 v 0.162286 0.162287 l -0.192632,0.19141 c -0.352351,0.350117 -0.586599,0.679427 -0.778016,1.093757 -0.0283,0.06127 -0.06078,0.137719 -0.07218,0.169886 l -0.02071,0.05849 h -0.336377 -0.336381 z"
       id="path126785" />
    <path
       style="opacity:0.874;fill:#5982a2;fill-opacity:1;stroke-width:0;stroke-miterlimit:4;stroke-dasharray:none"
       d="m 20.877645,14.831741 c 3.56e-4,-0.0014 0.0067,-0.02152 0.01383,-0.0448 0.101694,-0.330495 0.24238,-0.639524 0.431223,-0.947236 0.01162,-0.01896 0.02135,-0.03468 0.02157,-0.03495 0.0015,-0.0015 0.01936,-0.0028 0.02374,-0.0017 l 0.0052,0.0013 -0.0047,0.0083 c -0.0025,0.0046 -0.01625,0.02735 -0.03037,0.05064 -0.170741,0.282209 -0.304711,0.578768 -0.416125,0.921142 l -0.01618,0.04972 h -0.01451 c -0.01069,0 -0.01426,-6.42e-4 -0.01369,-0.0025 z"
       id="path126824" />
    <path
       style="opacity:0.874;fill:#5982a2;fill-opacity:1;stroke-width:0;stroke-miterlimit:4;stroke-dasharray:none"
       d="m 20.912152,14.831096 c 0,-0.0036 0.04366,-0.135358 0.06001,-0.181024 0.103202,-0.28831 0.215864,-0.527852 0.365598,-0.777337 0.05099,-0.08495 0.119375,-0.188619 0.179638,-0.272303 0.05617,-0.078 0.156033,-0.206804 0.162157,-0.209154 0.0067,-0.0026 0.0038,0.0024 -0.01265,0.02242 -0.19035,0.230782 -0.378834,0.527747 -0.511619,0.806085 -0.08524,0.178665 -0.136234,0.306632 -0.211697,0.53122 l -0.02731,0.08123 h 0.337474 c 0.268136,0 0.337679,-5.06e-4 0.338466,-0.0025 6.95e-4,-0.0015 0.001,-0.0011 0.001,9.87e-4 1.47e-4,0.0033 -0.01732,0.0034 -0.340536,0.0034 -0.308942,0 -0.34069,-2.9e-4 -0.34069,-0.0031 z"
       id="path126863" />
    <path
       style="opacity:0.874;fill:#5982a2;fill-opacity:1;stroke-width:0;stroke-miterlimit:4;stroke-dasharray:none"
       d=""
       id="path126902" />
    <path
       style="opacity:0.874;fill:#5982a2;fill-opacity:1;stroke-width:0;stroke-miterlimit:4;stroke-dasharray:none"
       d=""
       id="path126941" />
    <path
       style="opacity:0.874;fill:#5982a2;fill-opacity:1;stroke-width:0;stroke-miterlimit:4;stroke-dasharray:none"
       d="m 22.562494,13.410027 0.0923,-0.09149 -4.3e-5,-0.162575 -3.9e-5,-0.162575 H 22.354789 22.05487 l -0.07774,0.07972 c -0.101676,0.104273 -0.1079,0.11071 -0.131567,0.136119 -0.04963,0.05328 -0.103878,0.114684 -0.146528,0.165867 -0.01187,0.01425 -0.0139,0.01609 -0.01704,0.01549 -0.0032,-5.98e-4 -0.0032,-9.72e-4 -0.0018,-0.0029 10e-4,-0.0013 0.01447,-0.0173 0.0298,-0.03568 0.08571,-0.102692 0.150607,-0.173246 0.262881,-0.285812 l 0.07674,-0.07694 h 0.304542 0.304547 v 0.170493 0.170493 l -0.02891,0.02548 c -0.05214,0.04599 -0.123642,0.112117 -0.147912,0.136807 -0.0049,0.0051 -0.0097,0.0091 -0.01044,0.0091 -6.95e-4,-3.7e-5 0.0401,-0.04124 0.09086,-0.09156 z"
       id="path129316" />
    <path
       style="opacity:0.874;fill:#5982a2;fill-opacity:1;stroke-width:0;stroke-miterlimit:4;stroke-dasharray:none"
       d="m 21.458543,13.838576 v -0.142099 l 0.0072,-0.01073 c 0.0216,-0.0322 0.06542,-0.09339 0.09939,-0.13884 0.104574,-0.139928 0.216349,-0.270841 0.338252,-0.396169 0.0108,-0.0111 0.04468,-0.04588 0.07528,-0.07728 0.07656,-0.07856 0.07719,-0.07922 0.07644,-0.07997 -6.95e-4,-7.64e-4 -0.0035,0.0019 -0.100962,0.102252 -0.09177,0.09444 -0.09892,0.101905 -0.128028,0.133681 -0.04366,0.04766 -0.07598,0.08432 -0.117518,0.133309 -0.01978,0.02332 -0.02595,0.02928 -0.02813,0.02711 -6.95e-4,-6.81e-4 0.04483,-0.05553 0.07593,-0.0915 0.06911,-0.07994 0.113151,-0.126844 0.219326,-0.233593 l 0.07514,-0.07554 h 0.303312 0.303314 v 0.170501 0.170501 l -0.03655,0.03259 c -0.04396,0.0392 -0.07204,0.0648 -0.0856,0.07805 -0.0056,0.0054 -0.01041,0.0095 -0.01084,0.009 -3.57e-4,-4.38e-4 0.02884,-0.03001 0.06506,-0.06573 l 0.06585,-0.06493 -3.56e-4,-0.162571 c -2.71e-4,-0.08941 -6.95e-4,-0.162832 -10e-4,-0.163151 -3.03e-4,-3.19e-4 -6.95e-4,0.07237 -6.95e-4,0.161536 v 0.162117 l -0.125428,0.12532 c -0.169757,0.169608 -0.226911,0.229834 -0.31122,0.32793 -0.05455,0.06349 -0.127171,0.154102 -0.16263,0.202959 l -0.0053,0.0073 h -0.295092 -0.295092 z"
       id="path129355" />
    <path
       style="opacity:0.874;fill:#5982a2;fill-opacity:1;stroke-width:0;stroke-miterlimit:4;stroke-dasharray:none"
       d="M 21.458543,13.839253 V 13.69783 l 0.0097,-0.01456 c 0.02884,-0.04306 0.09633,-0.135684 0.138412,-0.189975 0.04494,-0.05797 0.111557,-0.139186 0.145071,-0.176849 0.0025,-0.0027 0.01711,-0.01927 0.03276,-0.03686 0.04966,-0.05591 0.07829,-0.08626 0.176672,-0.187336 0.0272,-0.02795 0.05973,-0.06136 0.07226,-0.07423 0.01252,-0.01288 0.02239,-0.02378 0.02196,-0.02423 -3.56e-4,-4.54e-4 -0.0038,0.002 -0.0074,0.0054 -0.0056,0.0053 -0.04872,0.04893 -0.06025,0.06096 -0.0018,0.002 -0.02196,0.02268 -0.04456,0.04597 -0.104666,0.107863 -0.115953,0.119972 -0.189523,0.203343 -0.0051,0.0057 -0.01936,0.02233 -0.0318,0.03688 -0.02467,0.02887 -0.0377,0.04292 -0.03881,0.04181 -3.56e-4,-3.93e-4 2.25e-4,-0.0018 0.0015,-0.0031 0.001,-0.0013 0.01326,-0.01592 0.02691,-0.03238 0.01365,-0.01647 0.0252,-0.03026 0.02563,-0.03064 3.56e-4,-3.83e-4 0.01048,-0.01197 0.02235,-0.02576 0.06521,-0.07591 0.103679,-0.116756 0.221048,-0.234745 0.03929,-0.0395 0.0711,-0.07217 0.07068,-0.07259 -0.0015,-0.0013 0.08464,-0.08053 0.138668,-0.127899 0.304069,-0.266621 0.643761,-0.498727 1.039007,-0.709938 l 0.03158,-0.01688 h 0.32176 0.321758 v 0.205853 0.205852 l -0.03098,0.01441 c -0.136924,0.06366 -0.274487,0.133838 -0.396515,0.202282 -0.287728,0.161379 -0.545507,0.338662 -0.776982,0.534353 -0.01857,0.0157 -0.03526,0.0297 -0.03709,0.0311 l -0.0032,0.0026 -3.42e-4,-0.171046 -3.38e-4,-0.171048 -6.95e-4,0.170656 -6.95e-4,0.170655 -0.01533,0.01375 c -0.0084,0.0076 -0.02032,0.01823 -0.02645,0.02373 -0.0061,0.0055 -0.02107,0.01891 -0.03319,0.02983 -0.01212,0.01092 -0.02232,0.01957 -0.02264,0.01924 -3.35e-4,-3.33e-4 0.02142,-0.02242 0.04832,-0.04907 l 0.04893,-0.04846 -10e-4,-0.162374 c -6.95e-4,-0.08931 -0.0015,-0.162635 -0.0015,-0.162954 -3.13e-4,-3.19e-4 -6.95e-4,0.07206 -6.95e-4,0.160835 l -6e-6,0.161415 -0.106172,0.106382 c -0.181706,0.182066 -0.236026,0.238802 -0.310788,0.324599 -0.05451,0.06255 -0.132601,0.158687 -0.169967,0.20923 l -0.01811,0.02449 -0.294864,1.13e-4 -0.294865,1.12e-4 z"
       id="path129394" />
    <path
       style="opacity:0.874;fill:#5982a2;fill-opacity:1;stroke-width:0;stroke-miterlimit:4;stroke-dasharray:none"
       d="m 21.458543,13.838851 v -0.141824 l 0.01715,-0.02493 c 0.01633,-0.02372 0.02296,-0.03308 0.05686,-0.07993 0.05404,-0.07473 0.106859,-0.142494 0.17094,-0.219319 0.03084,-0.03696 0.09397,-0.109057 0.118317,-0.135108 0.0043,-0.0046 0.01219,-0.01307 0.0175,-0.0188 0.02449,-0.02634 0.04755,-0.0504 0.110181,-0.114848 0.09368,-0.09641 0.106446,-0.109759 0.105676,-0.110528 -6.95e-4,-9.03e-4 -0.03223,0.03062 -0.09964,0.100084 -0.103782,0.106952 -0.121471,0.125729 -0.173236,0.183876 -0.03023,0.03396 -0.03526,0.03969 -0.06316,0.07224 -0.02221,0.02588 -0.03501,0.03957 -0.03606,0.03852 -3.56e-4,-4.22e-4 0.0032,-0.0056 0.0081,-0.01158 0.01265,-0.01543 0.05086,-0.06107 0.05549,-0.06629 0.0022,-0.0024 0.0096,-0.01103 0.01654,-0.01914 0.01757,-0.02051 0.05881,-0.06685 0.06991,-0.07856 0.0051,-0.0054 0.01953,-0.02069 0.03212,-0.03408 0.01258,-0.01338 0.04984,-0.0516 0.08279,-0.08494 0.08013,-0.08107 0.101348,-0.10279 0.102593,-0.105014 6.95e-4,-0.001 0.01344,-0.01341 0.02859,-0.02752 0.135236,-0.125943 0.260361,-0.230643 0.40787,-0.34129 0.228252,-0.17121 0.470941,-0.324403 0.749201,-0.472917 l 0.02388,-0.01274 h 0.321814 0.321814 v 0.205863 0.205864 l -0.05048,0.02354 c -0.05979,0.02789 -0.185545,0.09024 -0.243338,0.120659 -0.343724,0.18089 -0.652252,0.387019 -0.919752,0.614486 l -0.03062,0.02605 -6.95e-4,-0.171081 -6.95e-4,-0.171081 -3.42e-4,0.170635 -3.38e-4,0.170636 -0.04823,0.04312 c -0.02652,0.02371 -0.04893,0.04334 -0.04978,0.04361 -6.95e-4,2.75e-4 0.02028,-0.0214 0.04695,-0.04817 l 0.04851,-0.04867 2.75e-4,-0.09317 c 1.5e-4,-0.05124 -7.1e-5,-0.124189 -3.57e-4,-0.1621 -6.95e-4,-0.05098 -6.95e-4,-0.02714 -10e-4,0.09149 l -3.28e-4,0.160415 -0.09504,0.09517 c -0.159469,0.159686 -0.20374,0.205036 -0.25938,0.265687 -0.02859,0.03119 -0.0793,0.0886 -0.09473,0.107285 -0.0022,0.0027 -0.01166,0.01402 -0.02089,0.02507 -0.04478,0.05365 -0.08285,0.101391 -0.11366,0.142553 l -0.02135,0.02854 -0.294864,3.4e-5 -0.294864,3.5e-5 z"
       id="path129433" />
    <path
       style="opacity:0.874;fill:#5982a2;fill-opacity:1;stroke-width:0;stroke-miterlimit:4;stroke-dasharray:none"
       d="m 21.353181,13.799186 -0.0044,-0.0017 0.04549,-0.06821 c 0.04702,-0.07052 0.06269,-0.0932 0.09471,-0.137122 0.02246,-0.03079 0.07485,-0.100187 0.08128,-0.107641 l 0.0046,-0.0053 0.01297,4.18e-4 0.01297,4.19e-4 -0.02353,0.03133 c -0.06715,0.08947 -0.133524,0.184655 -0.186954,0.268103 -0.0058,0.009 -0.01183,0.01723 -0.01351,0.01836 -0.004,0.0027 -0.01804,0.0035 -0.0236,0.0013 z"
       id="path129472" />
    <path
       style="opacity:0.874;fill:#5982a2;fill-opacity:1;stroke-width:0;stroke-miterlimit:4;stroke-dasharray:none"
       d="m 21.112306,14.303389 c 0.0058,-0.01352 0.02966,-0.06435 0.04864,-0.103394 0.100022,-0.205929 0.222217,-0.411274 0.353752,-0.594461 0.0044,-0.006 0.0079,-0.01185 0.0079,-0.01288 0,-0.003 -0.0047,-0.0021 -0.0071,0.0013 -0.02317,0.03226 -0.06729,0.09654 -0.09829,0.143243 -0.04279,0.06448 -0.04103,0.06245 -0.05418,0.06245 -0.0032,0 -0.0076,-6.24e-4 -0.0096,-0.0014 l -0.0036,-0.0014 0.04649,-0.06928 c 0.02556,-0.03811 0.05423,-0.08025 0.06368,-0.09365 0.03233,-0.04581 0.109265,-0.148566 0.114338,-0.1527 0.0015,-10e-4 0.0056,-0.0013 0.01312,-6.75e-4 l 0.01119,9.03e-4 -0.02285,0.03064 c -0.04929,0.06612 -0.0563,0.07629 -0.05364,0.07778 0.0028,0.0016 -10e-4,0.0062 0.03893,-0.04715 0.06262,-0.08384 0.117586,-0.152844 0.119903,-0.150526 0.001,0.0012 -0.0018,0.005 -0.02766,0.03704 -0.05742,0.07091 -0.126843,0.163046 -0.123663,0.164106 0.001,3.08e-4 0.0022,-4.34e-4 0.0028,-0.0017 0.0059,-0.01056 0.09723,-0.129391 0.133306,-0.173455 0.0097,-0.01179 0.01911,-0.02338 0.021,-0.02576 0.0086,-0.01078 0.04973,-0.05929 0.06678,-0.07882 0.05521,-0.06326 0.09373,-0.104787 0.168524,-0.181723 0.12084,-0.12429 0.133174,-0.137162 0.131438,-0.137162 -6.95e-4,0 -0.0098,0.0086 -0.02,0.01914 -0.01023,0.01054 -0.03091,0.03168 -0.0459,0.04699 -0.132497,0.135267 -0.185642,0.192476 -0.269708,0.290338 -0.02577,0.03001 -0.03358,0.03836 -0.03476,0.03718 -0.001,-0.0011 -0.0025,6.4e-4 0.02656,-0.0344 0.05601,-0.06766 0.115618,-0.134683 0.167807,-0.188685 0.0089,-0.0092 0.05123,-0.05234 0.0941,-0.09588 0.04287,-0.04354 0.07842,-0.07999 0.079,-0.081 0.0018,-0.0032 0.06895,-0.06524 0.114527,-0.105884 0.160232,-0.142879 0.342422,-0.28428 0.527929,-0.409737 l 0.01686,-0.01142 h 0.19931 0.199309 l -5.7e-5,0.263533 -5.3e-5,0.263532 -0.02256,0.01532 c -0.140689,0.09552 -0.287375,0.207513 -0.411096,0.313867 l -0.01533,0.01317 -6.95e-4,-0.137059 -6.95e-4,-0.13706 -3.39e-4,0.136631 -3.38e-4,0.136632 -0.03027,0.02699 c -0.01665,0.01484 -0.03982,0.03561 -0.05148,0.04613 -0.01166,0.01053 -0.02167,0.01914 -0.02228,0.01914 -6.95e-4,0 0.02207,-0.02315 0.05035,-0.05145 l 0.05143,-0.05144 -3.24e-4,-0.142406 c -1.78e-4,-0.07832 -6.95e-4,-0.142692 -10e-4,-0.143042 -3.52e-4,-3.5e-4 -6.95e-4,0.06323 -6.95e-4,0.141287 v 0.141924 l -0.113607,0.113486 c -0.178651,0.178456 -0.229813,0.232104 -0.314731,0.330021 -0.04862,0.05606 -0.114252,0.136991 -0.154614,0.190642 l -0.0221,0.02936 h -0.294865 -0.294864 v -0.142036 -0.142035 l 0.02146,-0.03099 c 0.0118,-0.01703 0.02741,-0.03912 0.03465,-0.04908 0.0072,-0.01 0.01283,-0.01868 0.0124,-0.01938 -0.001,-0.0017 -0.0037,0.0017 -0.03358,0.04444 -0.145281,0.207683 -0.268848,0.423456 -0.374599,0.654131 -0.0032,0.0067 -0.0063,0.01218 -0.0071,0.01218 -0.001,0 -6.95e-4,-0.0016 3.56e-4,-0.0045 z"
       id="path129511" />
    <path
       style="opacity:0.874;fill:#5982a2;fill-opacity:1;stroke-width:0;stroke-miterlimit:4;stroke-dasharray:none"
       d="m 21.114595,14.300008 c 0,-0.0047 0.06784,-0.144415 0.09864,-0.203203 0.0818,-0.156123 0.179193,-0.316786 0.273415,-0.451029 0.01183,-0.01685 0.02456,-0.03502 0.02827,-0.04038 0.0037,-0.0054 0.01233,-0.01711 0.01914,-0.02611 0.0068,-0.009 0.01195,-0.01636 0.01145,-0.01636 -3.57e-4,0 3.21e-4,-0.0011 0.0018,-0.0024 0.0015,-0.0013 0.01693,-0.02124 0.03426,-0.04422 0.05508,-0.07303 0.09622,-0.124427 0.0981,-0.122554 6.95e-4,8.34e-4 -0.0022,0.0047 -0.0318,0.04179 -0.06331,0.07918 -0.122426,0.15805 -0.11847,0.15805 0.0018,0 0.021,-0.02597 0.021,-0.02855 0,-0.0012 6.94e-4,-0.0019 0.001,-0.0017 6.95e-4,1.92e-4 0.01016,-0.01156 0.02114,-0.02611 0.07888,-0.104729 0.156692,-0.198521 0.24491,-0.295207 0.03661,-0.04013 0.0618,-0.0664 0.188826,-0.197031 0.04189,-0.04308 0.04853,-0.05014 0.04714,-0.05014 -6.94e-4,0 -0.0092,0.008 -0.01868,0.01776 -0.0095,0.0098 -0.03016,0.03092 -0.0459,0.04699 -0.129955,0.132941 -0.178611,0.185002 -0.249235,0.266666 -0.05234,0.06053 -0.05713,0.06567 -0.05713,0.06139 0,-0.0025 0.0722,-0.0879 0.11477,-0.135769 0.04536,-0.051 0.06403,-0.07055 0.176202,-0.184441 0.04101,-0.04164 0.07505,-0.07655 0.07565,-0.07759 6.95e-4,-10e-4 0.01501,-0.0149 0.03205,-0.03082 0.180794,-0.168935 0.372873,-0.322346 0.591297,-0.472257 l 0.03681,-0.02526 h 0.199574 0.199572 v 0.263671 0.263672 l -0.01219,0.0081 c -0.119895,0.07952 -0.278601,0.199799 -0.406963,0.30843 l -0.02994,0.02533 -6.95e-4,-0.111881 -6.95e-4,-0.111881 -3.35e-4,0.111572 -3.35e-4,0.111574 -0.03655,0.03266 c -0.0201,0.01796 -0.04302,0.03847 -0.05092,0.04557 -0.0079,0.0071 -0.01461,0.01266 -0.0149,0.01236 -2.99e-4,-2.99e-4 0.02199,-0.02307 0.04953,-0.0506 l 0.05007,-0.05006 -3.39e-4,-0.139954 -3.38e-4,-0.139954 -6.95e-4,0.138859 -6.95e-4,0.138859 -0.134454,0.134769 c -0.166289,0.166675 -0.201042,0.202993 -0.274859,0.287227 -0.05861,0.06687 -0.124876,0.147969 -0.172755,0.211392 l -0.02228,0.02951 -0.294864,1.4e-5 -0.294865,1.4e-5 1.8e-5,-0.142384 1.8e-5,-0.142384 0.03076,-0.04386 c 0.01693,-0.02413 0.03301,-0.04693 0.03576,-0.05068 0.0077,-0.01054 0.0018,-0.0068 -0.0064,0.0041 -0.01864,0.02452 -0.08115,0.116194 -0.113393,0.166313 -0.06218,0.09666 -0.116281,0.188458 -0.172313,0.292427 -0.02128,0.03948 -0.08433,0.165534 -0.101687,0.203306 -0.01294,0.02816 -0.01675,0.03554 -0.01675,0.03248 z m 1.54385,-1.198268 c -3.57e-4,-0.0011 -6.95e-4,-7.64e-4 -6.95e-4,8.34e-4 -6.1e-5,0.0015 2.67e-4,0.0023 6.95e-4,0.0018 3.56e-4,-4.64e-4 3.56e-4,-0.0017 1.1e-4,-0.0026 z"
       id="path129550" />
    <path
       style="opacity:0.874;fill:#5982a2;fill-opacity:1;stroke-width:0;stroke-miterlimit:4;stroke-dasharray:none"
       d="m 21.074662,14.305965 c 0.004,-0.01031 0.03956,-0.08454 0.06386,-0.133124 0.05424,-0.108478 0.109942,-0.209526 0.169625,-0.307707 0.03999,-0.06578 0.03681,-0.06131 0.04344,-0.06131 0.0044,0 0.0054,-0.0035 0.0018,-0.0063 -0.0022,-0.0015 3.57e-4,-0.0058 0.02043,-0.03566 0.0571,-0.08561 0.09418,-0.139218 0.126308,-0.182581 0.0072,-0.0097 0.01301,-0.01807 0.0129,-0.01855 -1.07e-4,-4.84e-4 0.001,-0.0019 0.0025,-0.0032 0.0015,-0.0013 0.0053,-0.0061 0.0087,-0.01069 0.0032,-0.0046 0.01605,-0.02136 0.02823,-0.03725 l 0.02217,-0.02889 h 0.0075 c 0.0073,0 0.0098,-0.0016 0.0053,-0.0033 -0.001,-4.65e-4 -0.0047,-8.34e-4 -0.0077,-8.34e-4 -0.0028,0 -0.0054,-5.21e-4 -0.0054,-0.0012 0,-0.0013 0.04517,-0.05795 0.08066,-0.101192 0.215066,-0.262047 0.480142,-0.51719 0.765991,-0.737287 0.07304,-0.05624 0.193245,-0.143709 0.236156,-0.171843 0.0056,-0.0037 0.006,-0.0038 0.02691,-0.0033 l 0.02125,3.85e-4 -0.02064,0.01393 c -0.35844,0.241968 -0.68882,0.535322 -0.95507,0.848035 -0.01882,0.02211 -0.02431,0.02935 -0.02242,0.02971 0.0015,2.61e-4 0.0025,2.63e-4 0.0028,3e-6 0.0047,-0.0074 0.09098,-0.106569 0.118523,-0.136201 0.0046,-0.0049 0.01276,-0.01373 0.01811,-0.0195 0.01729,-0.01866 0.0404,-0.04246 0.119674,-0.123278 0.09665,-0.09853 0.102639,-0.104466 0.142875,-0.141437 0.17212,-0.15816 0.356368,-0.304297 0.559602,-0.443857 l 0.04092,-0.02811 h 0.19963 0.19963 v 0.263578 0.263578 l -0.03162,0.02154 c -0.131303,0.08944 -0.268267,0.19396 -0.393788,0.300526 l -0.02367,0.0201 -6.95e-4,-0.09106 -6.95e-4,-0.09106 -3.36e-4,0.09069 -3.31e-4,0.09069 -0.05091,0.04557 c -0.02798,0.02506 -0.05116,0.04532 -0.05146,0.04501 -3.06e-4,-3.04e-4 0.02199,-0.02308 0.04952,-0.05062 l 0.05007,-0.05006 -3.42e-4,-0.130903 -3.39e-4,-0.130903 -3.56e-4,0.12943 -3.56e-4,0.129431 -0.134066,0.13445 c -0.131165,0.131535 -0.169586,0.170907 -0.21482,0.22013 -0.07125,0.07754 -0.143217,0.162736 -0.211087,0.249915 -0.01928,0.02476 -0.04326,0.05692 -0.04412,0.05918 -3.57e-4,0.0012 -0.0018,0.0031 -0.0032,0.0042 -0.0015,0.0012 -0.0098,0.01242 -0.01889,0.02506 -0.06792,0.09456 -0.133036,0.194904 -0.184202,0.283866 -0.0041,0.0072 -0.0082,0.01327 -0.009,0.01358 -6.95e-4,3.09e-4 -0.162589,4.03e-4 -0.359492,2.07e-4 l -0.358001,-3.57e-4 0.0069,-0.01532 c 0.06321,-0.14073 0.160716,-0.322289 0.246967,-0.459876 0.0063,-0.01015 0.0108,-0.01844 0.0099,-0.01844 -0.0018,1.6e-5 -0.0085,0.01057 -0.04737,0.07513 -0.07085,0.117729 -0.138549,0.244938 -0.200759,0.377261 -0.0091,0.01944 -0.01682,0.03475 -0.01707,0.03402 -10e-4,-0.0032 0.06645,-0.14283 0.09816,-0.203046 0.04822,-0.0916 0.112535,-0.204174 0.154977,-0.271302 0.0056,-0.0089 0.0058,-0.01072 6.95e-4,-0.01062 -0.0025,5.1e-5 -0.0079,0.0081 -0.0298,0.04491 -0.0913,0.152936 -0.163201,0.289112 -0.226056,0.428116 l -0.009,0.01983 -0.01511,1.8e-5 c -0.0124,1.5e-5 -0.01497,-3.33e-4 -0.01436,-0.0019 z m 0.313237,-0.511736 c 0.0087,-0.01371 0.01194,-0.02001 0.01126,-0.02179 -6.95e-4,-0.0019 -3.56e-4,-0.0023 0.0015,-0.0017 0.0015,5.8e-4 0.0022,2.63e-4 0.0015,-9.72e-4 -3.56e-4,-9.73e-4 0.0015,-0.004 0.0039,-0.0066 0.0025,-0.0026 0.01422,-0.01926 0.02595,-0.03695 0.01668,-0.02513 0.02153,-0.03349 0.02221,-0.03823 6.95e-4,-0.0054 0.001,-0.0056 0.0018,-0.0022 6.94e-4,0.0036 0.0022,0.0019 0.01643,-0.01914 0.01269,-0.01866 0.01568,-0.02406 0.01583,-0.02829 1.53e-4,-0.0049 2.31e-4,-0.0049 0.001,-0.0013 6.95e-4,0.0037 0.0018,0.0026 0.01618,-0.01794 0.02342,-0.03344 0.0827,-0.112283 0.126565,-0.168281 0.0282,-0.036 0.0469,-0.05832 0.04797,-0.05725 6.94e-4,7.64e-4 -0.0038,0.0066 -0.03461,0.04525 -0.04515,0.05654 -0.09723,0.124849 -0.110678,0.14519 -0.0093,0.01404 -0.0042,0.01012 0.0071,-0.0055 0.03834,-0.05285 0.105957,-0.13927 0.15483,-0.197885 0.01105,-0.01324 0.01968,-0.02451 0.01914,-0.02502 -3.56e-4,-5.17e-4 -0.0015,-2.45e-4 -0.0018,6.04e-4 -0.0025,0.0038 -0.02863,0.03249 -0.02969,0.03249 -0.0028,0 -6.94e-4,-0.0033 0.01063,-0.01692 0.0081,-0.0098 0.01137,-0.01477 0.01037,-0.01576 -0.001,-9.73e-4 -0.0032,4.91e-4 -0.0066,0.0047 -0.02078,0.02489 -0.04972,0.06072 -0.06756,0.08359 -0.02627,0.03367 -0.02606,0.03347 -0.03212,0.03347 -0.0056,0 -0.0079,0.0023 -0.004,0.0038 0.0022,9.03e-4 3.5e-4,0.0041 -0.01593,0.0261 -0.01019,0.01379 -0.01907,0.0257 -0.01971,0.02649 -6.95e-4,7.65e-4 -0.001,0.0021 -6.95e-4,0.0029 6.95e-4,0.0018 -0.0092,0.01513 -0.01893,0.02557 -0.0039,0.0042 -0.0094,0.0111 -0.01223,0.01531 -0.0028,0.0042 -0.0068,0.0096 -0.0088,0.01186 -0.0022,0.0023 -0.0067,0.0086 -0.01041,0.01393 -0.0037,0.0054 -0.01661,0.02398 -0.02877,0.04138 -0.01212,0.01739 -0.02221,0.03242 -0.02242,0.03337 -2e-4,9.72e-4 -0.0015,0.0027 -0.0025,0.0039 -0.001,0.0012 -0.01643,0.02326 -0.03372,0.04909 -0.02285,0.0341 -0.03051,0.04652 -0.02802,0.04538 0.0018,-8.34e-4 0.0035,-0.0021 0.0035,-0.0027 0,-6.44e-4 6.95e-4,-0.0012 0.0015,-0.0012 6.95e-4,0 0.001,9.73e-4 6.95e-4,0.0021 -3.56e-4,0.0012 -0.0015,0.0021 -0.0025,0.0021 -0.001,0 -0.0025,9.03e-4 -0.0035,0.002 -10e-4,0.0011 -0.0022,0.0019 -0.0028,0.0017 -6.95e-4,-1.68e-4 -0.0038,0.0031 -0.0073,0.0074 -0.0073,0.009 -0.01094,0.01109 -0.01896,0.01112 -0.0043,1.4e-5 -0.0059,5.84e-4 -0.0059,0.0021 0,0.0016 0.0018,0.0021 0.0071,0.0021 0.0075,0 0.0077,1.95e-4 0.0047,0.0073 -6.95e-4,0.002 -2.71e-4,0.0024 0.0028,0.0024 0.0036,-2.9e-5 0.0051,-0.0019 0.01618,-0.01931 z m 0.0022,0.0065 c 0.0035,-0.0056 0.0158,-0.02441 0.0272,-0.04191 0.01141,-0.0175 0.0205,-0.03249 0.02021,-0.03333 -2.75e-4,-8.33e-4 -0.0025,0.0017 -0.0051,0.0057 -0.0025,0.004 -0.0052,0.0072 -0.0059,0.0072 -6.95e-4,0 -6.95e-4,5.89e-4 -3.56e-4,0.0013 3.56e-4,6.94e-4 -3e-4,0.0019 -0.0018,0.0027 -0.0015,7.64e-4 -0.0022,0.0015 -0.0015,0.0015 6.95e-4,2.3e-5 -0.0022,0.0046 -0.0057,0.01014 -0.0057,0.0084 -0.03198,0.0491 -0.03558,0.05501 -6.95e-4,9.73e-4 -3.57e-4,0.0017 3.56e-4,0.0017 6.95e-4,0 0.0044,-0.0045 0.008,-0.0101 z m 0.05612,-0.08556 c 0,0.0019 0.0015,0.0024 0.0064,0.0024 h 0.0064 l -3.56e-4,-0.01013 -3.57e-4,-0.01013 0.01526,-0.02215 c 0.0084,-0.01219 0.0159,-0.02344 0.01665,-0.02503 6.95e-4,-0.0016 0.0022,-0.0035 0.0028,-0.0042 0.0028,-0.0023 0.03526,-0.04861 0.03522,-0.05013 -4.6e-5,-0.0017 -0.0085,0.0077 -0.01376,0.01532 -0.0022,0.0031 -0.01155,0.01654 -0.021,0.02994 -0.01682,0.02391 -0.04302,0.06272 -0.04509,0.06684 -10e-4,0.0022 0.0022,-0.0013 0.0056,-0.0062 0.001,-0.0015 0.0022,-0.0024 0.0025,-0.002 3.56e-4,3.96e-4 -0.0028,0.0043 -0.0069,0.0087 -0.0042,0.0044 -0.0076,0.0084 -0.0076,0.0089 2.5e-5,5.39e-4 0.001,-2.36e-4 0.0022,-0.0017 0.0018,-0.0024 0.0022,-0.0024 0.0022,-3.49e-4 z m 0.106011,-0.169968 c 0.0018,-0.0022 0.0018,-0.0022 -3.56e-4,-5.26e-4 -0.0015,10e-4 -0.0025,0.0022 -0.0025,0.0024 0,0.0011 0.001,4.09e-4 0.0028,-0.0019 z m 0.183129,-0.210269 c 0.07628,-0.08852 0.118697,-0.133701 0.304297,-0.324069 0.0074,-0.0076 0.01322,-0.01421 0.01283,-0.01461 -3.56e-4,-3.91e-4 -0.0074,0.0062 -0.01558,0.01459 -0.0082,0.0084 -0.03742,0.03847 -0.065,0.06681 -0.128063,0.131542 -0.160161,0.165912 -0.22694,0.243006 -0.01294,0.01493 -0.02478,0.02857 -0.02631,0.03029 -0.0015,0.0017 -0.0022,0.0031 -0.0015,0.0031 6.95e-4,0 0.0089,-0.0086 0.018,-0.01914 z m 0.923296,-0.18999 c -3.56e-4,-0.0011 -6.95e-4,-7.65e-4 -6.95e-4,8.34e-4 -6.1e-5,0.0015 2.67e-4,0.0023 6.95e-4,0.0018 3.57e-4,-4.63e-4 3.57e-4,-0.0017 1.11e-4,-0.0026 z"
       id="path129589" />
    <path
       style="opacity:0.874;fill:#5982a2;fill-opacity:1;stroke-width:0;stroke-miterlimit:4;stroke-dasharray:none"
       d="m 20.920337,14.829103 c 0,-0.0038 0.06696,-0.199491 0.08589,-0.251042 0.02253,-0.06136 0.05237,-0.135866 0.08394,-0.209573 l 0.02595,-0.06057 h 0.359081 0.359081 l -0.0056,0.0091 c -0.01608,0.026 -0.06632,0.121043 -0.100449,0.189992 -0.05592,0.112961 -0.102264,0.219091 -0.128548,0.294364 -0.007,0.02012 -0.01088,0.02738 -0.01504,0.02848 -0.0097,0.0026 -0.664262,0.0018 -0.664262,-7.85e-4 z"
       id="path129628" />
    <path
       style="opacity:0.874;fill:#5982a2;fill-opacity:1;stroke-width:0;stroke-miterlimit:4;stroke-dasharray:none"
       d="m 20.37802,16.238506 c 0.03618,-0.03428 0.05214,-0.04876 0.120388,-0.10931 0.08116,-0.07199 0.148924,-0.138322 0.177374,-0.173609 0.01219,-0.01513 0.02584,-0.0306 0.03034,-0.03436 0.0045,-0.0038 0.0081,-0.0094 0.0081,-0.01252 0,-0.0031 0.0043,-0.01648 0.0096,-0.02969 0.01583,-0.03986 0.01821,-0.05701 0.0211,-0.152453 0.0015,-0.04766 0.0046,-0.109072 0.0069,-0.136466 0.01789,-0.20705 0.06498,-0.439955 0.141049,-0.698019 l 0.01704,-0.05779 h 0.01911 c 0.01091,0 0.01911,-0.0012 0.01911,-0.0028 0,-0.0015 -0.0062,-0.0028 -0.01376,-0.0028 h -0.01369 l 0.02321,-0.06893 c 0.05829,-0.173238 0.08722,-0.250399 0.144365,-0.385029 0.08279,-0.195047 0.20821,-0.430479 0.322708,-0.605741 0.02998,-0.04591 0.02863,-0.04348 0.02303,-0.04133 -0.0028,0.0012 -10e-4,-0.0037 0.0058,-0.014 0.0058,-0.0087 0.01108,-0.01516 0.01183,-0.0144 6.95e-4,7.64e-4 -0.0022,0.0067 -0.0063,0.01327 -0.0042,0.0065 -0.006,0.01033 -0.004,0.0084 0.0022,-0.0019 0.0072,-0.0035 0.01148,-0.0035 0.0073,0 0.0077,-5.76e-4 0.0065,-0.01022 -0.001,-0.0095 0.0058,-0.0266 0.01201,-0.02927 0.001,-4.92e-4 0.0054,-0.0065 0.0094,-0.01343 0.004,-0.0069 0.0099,-0.0153 0.01312,-0.01869 0.0032,-0.0034 0.0058,-0.0075 0.0058,-0.0091 0,-0.0017 0.0018,-0.0037 0.0042,-0.0046 0.0022,-9.04e-4 0.0036,-0.0025 0.0028,-0.0036 -6.95e-4,-0.0011 0.0025,-0.0059 0.0067,-0.01069 0.0044,-0.0048 0.0072,-0.0093 0.0064,-0.01016 -6.95e-4,-8.34e-4 6.95e-4,-0.0023 0.0032,-0.0033 0.0025,-9.73e-4 0.0046,-0.0029 0.0046,-0.0044 0,-0.0015 -0.0015,-0.0019 -0.0028,-9.03e-4 -0.0015,9.73e-4 -0.0028,-1.59e-4 -0.0028,-0.0024 0,-0.0054 0.0047,-0.0083 0.007,-0.0044 0.001,0.0017 0.0056,-0.0026 0.01019,-0.0097 0.0046,-0.007 0.0097,-0.01265 0.01138,-0.01265 0.0018,0 0.0022,-7.64e-4 0.0015,-0.0017 -0.0018,-0.0017 6.95e-4,-0.0052 0.01109,-0.01668 0.0032,-0.0037 0.0053,-0.0067 0.0042,-0.0068 -0.001,-5.2e-5 0.001,-0.0026 0.0046,-0.0056 0.0036,-0.003 0.0055,-0.0055 0.0042,-0.0056 -0.0015,-5.1e-5 6.95e-4,-0.0026 0.0042,-0.0056 0.0036,-0.003 0.0058,-0.0055 0.0047,-0.0055 -0.0015,0 0.0047,-0.0084 0.02217,-0.02987 0.0015,-0.0019 0.0053,-0.0067 0.0083,-0.01084 0.0032,-0.0041 0.0087,-0.01053 0.01255,-0.01433 0.0038,-0.0038 0.0067,-0.008 0.0063,-0.0094 -3.57e-4,-0.0013 3.56e-4,-0.0024 0.0018,-0.0024 0.0015,0 0.0032,-0.0023 0.0042,-0.0051 6.95e-4,-0.0028 0.0079,-0.01156 0.01551,-0.01949 0.0076,-0.0079 0.01387,-0.01507 0.01383,-0.01587 -7.8e-5,-0.0019 0.0049,-0.0081 0.01529,-0.01906 0.0046,-0.0048 0.0083,-0.0096 0.0083,-0.0106 3.9e-5,-0.001 0.0028,-0.0043 0.0063,-0.0073 0.0035,-0.003 0.0063,-0.0066 0.0063,-0.008 0,-0.0014 0.0025,-0.0048 0.0058,-0.0075 0.0032,-0.0028 0.0051,-0.0057 0.0043,-0.0065 -6.95e-4,-8.34e-4 -0.0036,5.64e-4 -0.0062,0.0031 -0.0025,0.0026 -0.0054,0.004 -0.0062,0.0031 -0.0022,-0.0022 0.01101,-0.01558 0.01469,-0.01475 0.0018,3.88e-4 0.0072,-0.0027 0.01226,-0.007 0.0059,-0.005 0.0076,-0.0077 0.0047,-0.0077 -0.0025,0 -0.0044,-0.0013 -0.0044,-0.0028 0,-0.0015 0.0015,-0.0028 0.0028,-0.0028 0.0018,0 0.0022,-0.0012 0.0015,-0.0026 -0.001,-0.0015 0.001,-0.004 0.004,-0.0057 0.0032,-0.0018 0.0056,-0.0019 0.0056,-3.72e-4 0,0.0015 -0.0015,0.0032 -0.0035,0.0039 -0.0018,6.83e-4 -0.0028,0.0021 -0.0018,0.0031 10e-4,10e-4 0.0047,-6.69e-4 0.0083,-0.0038 0.0053,-0.0044 0.0059,-0.0061 0.0028,-0.0081 -0.0051,-0.0034 -0.001,-0.01081 0.01265,-0.0224 0.0058,-0.005 0.01,-0.0096 0.0092,-0.01021 -6.95e-4,-6.26e-4 0.0022,-0.0046 0.0063,-0.0088 0.0042,-0.0042 0.01301,-0.01388 0.0195,-0.02145 0.02463,-0.0287 0.04074,-0.04458 0.04294,-0.04237 0.0015,0.0013 -6.95e-4,0.0047 -0.0044,0.0077 -0.0037,0.003 -0.006,0.006 -0.0053,0.0067 6.95e-4,6.95e-4 0.0095,-0.0068 0.01946,-0.01678 0.01,-0.0099 0.01729,-0.01808 0.01618,-0.01808 -0.001,0 -0.0062,0.0044 -0.01141,0.0097 -0.0089,0.0092 -0.01779,0.01398 -0.01119,0.006 0.0018,-0.0021 0.0025,-0.0043 0.0018,-0.0049 -6.95e-4,-6.67e-4 0.01123,-0.01362 0.02649,-0.02879 0.01523,-0.01516 0.0277,-0.02885 0.0277,-0.03041 0,-0.0016 0.0015,-0.0013 0.0035,6.09e-4 0.0022,0.0022 0.0025,0.0042 6.95e-4,0.0055 -0.0015,0.0011 -0.009,0.0089 -0.01668,0.01724 -0.0077,0.0084 -0.01034,0.01207 -0.006,0.0083 0.01451,-0.01265 0.06587,-0.06411 0.06587,-0.06601 0,-10e-4 -0.0044,0.0024 -0.0098,0.0076 -0.0063,0.0061 -0.01069,0.0085 -0.01248,0.0067 -0.0018,-0.0017 0.01091,-0.01625 0.03625,-0.04136 0.02142,-0.02126 0.03976,-0.03784 0.04073,-0.03687 0.001,9.73e-4 -0.0063,0.0097 -0.01605,0.01929 -0.0098,0.0096 -0.02028,0.02062 -0.02328,0.02442 -0.0028,0.0038 0.007,-0.0051 0.02228,-0.01992 0.01526,-0.01475 0.0339,-0.0326 0.04146,-0.03968 0.01526,-0.01431 0.01583,-0.01642 0.0018,-0.006 -0.02014,0.01486 -0.01037,0.0026 0.02716,-0.03406 0.04187,-0.04091 0.07246,-0.06925 0.115048,-0.106553 0.0079,-0.0069 0.01846,-0.01661 0.02353,-0.02158 0.0051,-0.005 0.01037,-0.0091 0.0118,-0.0091 0.0015,0 0.0065,-0.0041 0.01141,-0.0091 0.0139,-0.01427 0.02313,-0.02258 0.03656,-0.0329 0.0069,-0.0053 0.01476,-0.0124 0.01761,-0.01584 0.0028,-0.0035 0.0063,-0.0063 0.0078,-0.0063 0.0015,0 0.0063,-0.0035 0.0108,-0.0077 0.016,-0.01509 0.02217,-0.02019 0.02438,-0.02019 0.0015,0 0.0042,-0.0022 0.0066,-0.0049 0.0064,-0.0072 0.02164,-0.02019 0.02371,-0.02019 0.001,0 0.0038,-0.0022 0.0063,-0.0049 0.0045,-0.0049 0.02766,-0.02338 0.03925,-0.03126 0.0064,-0.0044 0.0129,-0.0097 0.02584,-0.0211 0.0042,-0.0038 0.0077,-0.0059 0.0077,-0.0049 0,10e-4 0.0025,-8.34e-4 0.0057,-0.0042 0.0032,-0.0033 0.0091,-0.0083 0.01322,-0.0109 0.0042,-0.0026 0.0085,-0.0064 0.0098,-0.0083 0.001,-0.0019 0.0035,-0.0035 0.0051,-0.0035 0.0015,0 0.0045,-0.0016 0.0065,-0.0035 0.0022,-0.0019 0.0065,-0.0053 0.0099,-0.0077 0.0035,-0.0023 0.0077,-0.0055 0.0094,-0.0071 0.0063,-0.0058 0.04062,-0.03189 0.04205,-0.03189 6.95e-4,0 0.0037,-0.0019 0.0063,-0.0043 0.0028,-0.0024 0.0092,-0.0077 0.01447,-0.01183 l 0.0096,-0.0076 0.275183,-7.65e-4 0.275187,-7.64e-4 -2.5e-5,0.211005 -2.1e-5,0.211005 -0.02296,0.01526 c -0.01262,0.0084 -0.0242,0.01626 -0.02574,0.01749 -0.0035,0.0028 -0.02748,0.01994 -0.04582,0.0327 -0.01187,0.0083 -0.05488,0.0394 -0.07025,0.05084 -0.0025,0.0019 -0.0074,0.0053 -0.01069,0.0077 -0.0032,0.0023 -0.0083,0.006 -0.01108,0.0084 -0.0028,0.0023 -0.0078,0.006 -0.01126,0.0084 -0.0035,0.0023 -0.01262,0.0093 -0.02046,0.0155 -0.0078,0.0063 -0.02179,0.01682 -0.03094,0.02353 -0.0092,0.0067 -0.01814,0.01352 -0.01989,0.01514 -0.0018,0.0016 -0.0067,0.0054 -0.01105,0.0085 -0.0044,0.0031 -0.0123,0.0094 -0.01772,0.01406 -0.0054,0.0047 -0.01547,0.01281 -0.02231,0.0181 -0.0069,0.0053 -0.01444,0.01149 -0.01686,0.01379 -0.0025,0.0023 -0.0086,0.0073 -0.01376,0.01114 -0.01226,0.0091 -0.04699,0.03804 -0.06947,0.0579 -0.0098,0.0087 -0.02235,0.01907 -0.02784,0.02309 -0.0055,0.004 -0.01237,0.01001 -0.0153,0.01329 -0.0028,0.0033 -0.0066,0.006 -0.0081,0.006 -0.0015,0 -0.0086,0.0057 -0.01558,0.0127 -0.02545,0.02535 -0.02788,0.02742 -0.0298,0.02549 -0.0025,-0.0024 0.06306,-0.06912 0.06608,-0.06726 10e-4,7.64e-4 0.0018,-0.0013 10e-4,-0.0047 -0.0015,-0.0079 -0.0041,-0.01037 -0.0041,-0.004 0,0.0029 -0.04436,0.04934 -0.105133,0.110054 -0.05783,0.05776 -0.130829,0.131725 -0.162228,0.164362 -0.07383,0.07674 -0.07323,0.07609 -0.09608,0.10181 -0.01073,0.01206 -0.02199,0.02456 -0.02506,0.02778 -0.0032,0.0032 -0.01162,0.01296 -0.019,0.02164 -0.0074,0.0087 -0.01804,0.02079 -0.02367,0.02691 -0.0056,0.0061 -0.01337,0.01522 -0.01722,0.02022 -0.0038,0.005 -0.01041,0.01265 -0.01461,0.01698 -0.0042,0.0043 -0.0077,0.0088 -0.0077,0.0099 0,0.0011 -0.0028,0.0048 -0.0063,0.0081 -0.0035,0.0033 -0.0094,0.0099 -0.01322,0.01457 -0.0038,0.0047 -0.0098,0.01171 -0.01322,0.01552 -0.0035,0.0038 -0.0063,0.0081 -0.0063,0.0095 0,0.0014 -0.0025,0.0039 -0.0056,0.0056 -0.0032,0.0017 -0.0056,0.0048 -0.0056,0.007 0,0.0022 -0.0025,0.0056 -0.0056,0.0075 -0.0032,0.0019 -0.0056,0.0047 -0.0056,0.0063 -3.2e-5,0.0024 -0.0096,0.0144 -0.0262,0.03275 -0.0025,0.0027 -0.0044,0.0055 -0.0044,0.0063 0,0.0014 -0.03612,0.0491 -0.03905,0.05157 -0.0093,0.0079 -0.113498,0.161207 -0.155152,0.228371 -0.113195,0.182519 -0.224681,0.403312 -0.284883,0.564186 -0.02324,0.0621 -0.02203,0.05966 -0.02948,0.05966 -0.0037,0 -0.0067,0.0013 -0.0067,0.0028 0,0.0015 0.0038,0.0028 0.0083,0.0028 0.0046,0 0.0083,5.59e-4 0.0083,0.0012 0,6.85e-4 -0.0063,0.01917 -0.01394,0.04108 -0.01725,0.04929 -0.04604,0.140819 -0.06104,0.194088 -0.03701,0.131429 -0.08376,0.351017 -0.08376,0.393426 v 0.0142 l 0.0086,-0.0017 c 0.01276,-0.0026 0.113496,-0.04069 0.248996,-0.09427 0.183414,-0.07252 0.272216,-0.1056 0.380156,-0.1416 0.406446,-0.135558 0.796948,-0.205144 1.311741,-0.233749 0.06469,-0.0036 0.681886,-0.03064 0.699532,-0.03065 0.01013,-8e-6 0.01322,0.0011 0.01394,0.0048 3.56e-4,0.0026 -0.0063,0.06437 -0.01497,0.137162 -0.02445,0.203433 -0.0365,0.327194 -0.04003,0.410847 -10e-4,0.02298 -0.0028,0.04679 -0.0045,0.05292 -0.01001,0.04031 -0.05651,0.05462 -0.216698,0.06668 -0.02987,0.0023 -0.08063,0.0048 -0.112795,0.0056 -0.129182,0.0033 -0.241716,0.0087 -0.326962,0.01547 -0.019,0.0015 -0.06913,0.0053 -0.1114,0.0084 -0.28022,0.02049 -0.517602,0.0547 -0.695048,0.10015 -0.163903,0.04198 -0.460415,0.142971 -0.693561,0.236217 -0.175083,0.07002 -0.321843,0.141606 -0.332976,0.162408 -0.0049,0.0092 -3.56e-4,0.02046 0.02107,0.05263 l 0.02046,0.03061 h -0.616299 -0.616607 z m 1.190601,-1.405779 c -0.0018,-0.0019 -0.325743,-0.0016 -0.327621,2.42e-4 -6.95e-4,7.22e-4 0.07305,0.0013 0.163932,0.0013 0.09088,0 0.164544,-7.02e-4 0.163689,-0.0016 z m 0.206717,-1.541675 c 0,-0.0038 -0.001,-0.0031 -0.0113,0.0077 l -0.0096,0.01019 0.01044,-0.0077 c 0.0058,-0.0042 0.01044,-0.0088 0.01044,-0.01019 z m 0.881246,-1.11e-4 c 3.56e-4,-0.0021 0.0018,-0.006 0.0028,-0.0087 0.001,-0.0028 0.0015,-0.0058 3.56e-4,-0.0067 -10e-4,-9.73e-4 -0.0018,4.28e-4 -0.0018,0.0031 0,0.0026 -0.001,0.0042 -0.0022,0.0035 -0.001,-7.64e-4 -0.0025,0.0026 -0.0028,0.0073 -6.94e-4,0.0083 0.0018,0.0095 0.0035,0.0016 z m -0.866113,-0.01766 c 0.0053,-0.0053 0.0088,-0.0097 0.0077,-0.0097 -0.0025,9.8e-5 -0.0201,0.01594 -0.0201,0.01798 0,0.0031 0.0028,10e-4 0.01233,-0.0083 z m 0.866836,-0.01027 c -10e-4,-0.0022 -0.0015,-0.0015 -0.0018,0.0017 -1.21e-4,0.0029 6.95e-4,0.0046 0.0015,0.0037 0.001,-9.04e-4 0.001,-0.0033 2.21e-4,-0.0054 z m -0.839369,-0.01975 c 0.0046,-0.0042 0.0077,-0.0084 0.0069,-0.0091 -0.0015,-0.0016 -0.02445,0.01938 -0.02445,0.02244 0,0.0022 0.0047,-0.0013 0.01754,-0.01333 z m 0.836585,-0.175199 c -6.94e-4,-0.0022 -0.0015,-0.0015 -0.0018,0.0017 -1.22e-4,0.0029 6.95e-4,0.0046 0.0015,0.0037 10e-4,-9.03e-4 10e-4,-0.0033 2.21e-4,-0.0053 z"
       id="path129667" />
    <path
       style="opacity:0.874;fill:#5982a2;fill-opacity:1;stroke-width:0;stroke-miterlimit:4;stroke-dasharray:none"
       d="m 20.35651,16.257906 c 0.0015,-0.0013 0.01454,-0.01349 0.02909,-0.02715 0.01454,-0.01367 0.06029,-0.05489 0.101651,-0.09162 0.08517,-0.07562 0.167719,-0.156462 0.19346,-0.189456 0.0096,-0.01225 0.02103,-0.02519 0.02545,-0.02875 0.0044,-0.0036 0.0081,-0.009 0.0081,-0.01219 0,-0.0031 0.0043,-0.01653 0.0096,-0.02974 0.01576,-0.03961 0.01814,-0.057 0.0211,-0.152827 0.0015,-0.04787 0.0047,-0.109278 0.0069,-0.136466 0.01786,-0.207138 0.06674,-0.448206 0.142632,-0.703215 l 0.01554,-0.05222 0.02256,-4.2e-5 c 0.01558,-3e-5 0.02124,-8.76e-4 0.01836,-0.0027 -0.0022,-0.0015 -0.01009,-0.0027 -0.01732,-0.0027 l -0.01315,-4.3e-5 0.03444,-0.100957 c 0.05371,-0.157424 0.06633,-0.191526 0.111059,-0.300101 0.09167,-0.222533 0.21713,-0.462321 0.343086,-0.655725 0.03212,-0.04931 0.03166,-0.04854 0.02563,-0.04365 -0.0072,0.0058 -0.0057,0.0018 0.0054,-0.01504 0.01084,-0.01632 0.01672,-0.01915 0.0069,-0.0033 l -0.0058,0.0094 0.0083,-0.0012 c 0.0075,-0.0011 0.0083,-0.0022 0.0083,-0.01153 0,-0.0087 0.0054,-0.01807 0.03511,-0.06026 0.01933,-0.02746 0.03248,-0.04755 0.02923,-0.04463 -0.0089,0.008 -0.0071,0.0014 0.0028,-0.0096 0.0056,-0.0063 0.0079,-0.0078 0.0068,-0.0042 -0.0022,0.007 -0.0056,0.01115 0.04013,-0.04968 0.0344,-0.04575 0.06663,-0.08666 0.129784,-0.16468 l 0.01579,-0.0195 -0.0169,0.0181 c -0.0093,0.01 -0.01693,0.01684 -0.017,0.0153 -1.82e-4,-0.0055 0.09898,-0.120828 0.162766,-0.189327 0.03654,-0.03925 0.180344,-0.185655 0.224259,-0.228328 0.102884,-0.09998 0.269051,-0.239301 0.422421,-0.354175 l 0.06455,-0.04834 0.648417,2.7e-5 0.648416,2.8e-5 -0.125325,0.06239 c -0.29028,0.14451 -0.515951,0.280158 -0.761702,0.457855 -0.115372,0.08342 -0.24946,0.190667 -0.356993,0.285529 -0.02752,0.02427 -0.05051,0.04364 -0.05111,0.04304 -6.95e-4,-6.01e-4 0.02078,-0.02295 0.04754,-0.04967 0.03272,-0.03268 0.04853,-0.05041 0.04831,-0.05418 -3.21e-4,-0.0056 -3.28e-4,-0.0056 -0.0018,-3e-5 -6.95e-4,0.0031 -0.0661,0.07074 -0.145217,0.150391 -0.177906,0.179103 -0.232893,0.237848 -0.318035,0.339772 -0.134954,0.161552 -0.230816,0.295414 -0.327056,0.456697 -0.101626,0.170309 -0.194222,0.358206 -0.253839,0.515102 -0.0099,0.02597 -0.01928,0.04885 -0.02097,0.05085 -0.0018,0.002 -0.0054,0.0036 -0.0082,0.0036 -0.0084,0 -0.006,0.0047 0.0035,0.0066 0.0069,0.0014 0.0082,0.0027 0.0066,0.0066 -0.0077,0.01838 -0.04929,0.146483 -0.06402,0.197049 -0.04323,0.148447 -0.09329,0.376588 -0.09329,0.425139 v 0.0142 l 0.0086,-0.0017 c 0.01322,-0.0026 0.115225,-0.04137 0.262919,-0.09981 0.164218,-0.06497 0.253505,-0.09838 0.349521,-0.130758 0.406871,-0.137213 0.792507,-0.207449 1.304782,-0.237641 0.0584,-0.0034 0.315508,-0.015 0.691644,-0.03111 0.03141,-0.0013 0.04327,-9.66e-4 0.04476,0.0014 0.001,0.0018 -1.68e-4,0.02173 -0.0028,0.0443 -0.0025,0.02257 -0.01059,0.08928 -0.01757,0.148255 -0.01779,0.150225 -0.02602,0.234983 -0.03101,0.318884 -0.0051,0.08539 -0.0071,0.09923 -0.01647,0.111521 -0.01369,0.01794 -0.05296,0.03079 -0.118458,0.03875 -0.05139,0.0062 -0.136091,0.01222 -0.197738,0.01395 -0.129385,0.0036 -0.220808,0.0078 -0.309138,0.0142 -0.03141,0.0023 -0.07464,0.0054 -0.09608,0.0069 -0.317636,0.02252 -0.570064,0.0589 -0.75474,0.108792 -0.36379,0.09827 -0.993035,0.346376 -1.005616,0.396498 -0.0022,0.008 0.0083,0.02891 0.02848,0.05788 l 0.01504,0.02158 h -0.617502 c -0.339628,0 -0.616312,-0.001 -0.614858,-0.0023 z m 0.919689,-1.425648 c -0.0057,-5.99e-4 -0.01572,-6.06e-4 -0.02228,-1.9e-5 -0.0065,5.88e-4 -0.0018,0.0011 0.01037,0.0011 0.01226,1.1e-5 0.01761,-4.71e-4 0.0119,-0.0011 z m 0.09054,-2.5e-5 c -0.008,-5.6e-4 -0.02178,-5.67e-4 -0.03062,-1.1e-5 -0.0089,5.56e-4 -0.0025,10e-4 0.01451,10e-4 0.01686,6e-6 0.0241,-4.45e-4 0.01611,-10e-4 z m 0.36404,-1.492113 c 0.0036,-0.0038 0.0059,-0.007 0.0051,-0.007 -6.95e-4,0 -0.0044,0.0031 -0.0079,0.007 -0.0036,0.0038 -0.0059,0.007 -0.0051,0.007 6.95e-4,0 0.0044,-0.0031 0.0079,-0.007 z m 0.01672,-0.0195 c 0.0036,-0.0038 0.0059,-0.007 0.0051,-0.007 -6.95e-4,0 -0.0044,0.0031 -0.0079,0.007 -0.0036,0.0038 -0.0059,0.007 -0.0051,0.007 6.95e-4,0 0.0044,-0.0031 0.008,-0.007 z m 0.02107,-0.02437 0.0082,-0.0091 -0.0091,0.0082 c -0.0084,0.0076 -0.01034,0.0099 -0.0082,0.0099 3.57e-4,0 0.0046,-0.0041 0.0091,-0.0091 z m 0.885998,-0.0097 c -6.95e-4,-0.0027 -0.0015,-0.0012 -0.0015,0.0034 -5.7e-5,0.0046 3.56e-4,0.0068 0.0015,0.0049 6.95e-4,-0.0019 6.95e-4,-0.0056 1.04e-4,-0.0084 z m -0.865286,-0.01328 c 0.0052,-0.0054 0.0088,-0.0097 0.0081,-0.0097 -6.95e-4,0 -0.0056,0.0044 -0.01084,0.0097 -0.0052,0.0054 -0.0088,0.0097 -0.0081,0.0097 6.95e-4,0 0.0056,-0.0044 0.01084,-0.0097 z m 0.02645,-0.02924 c 0.006,-0.0061 0.01027,-0.01114 0.0095,-0.01114 -6.95e-4,0 -0.0063,0.005 -0.01226,0.01114 -0.006,0.0061 -0.01026,0.01114 -0.0095,0.01114 6.95e-4,0 0.0063,-0.005 0.01227,-0.01114 z m 0.03483,-0.0376 c 0.0083,-0.0084 0.01451,-0.01532 0.01372,-0.01532 -6.95e-4,0 -0.0082,0.0069 -0.0165,0.01532 -0.0083,0.0084 -0.01451,0.01531 -0.01372,0.01531 6.95e-4,0 0.0082,-0.0069 0.0165,-0.01531 z m 0.06405,-0.06684 c 0.01757,-0.01761 0.0313,-0.03203 0.03055,-0.03203 -6.95e-4,0 -0.01575,0.01441 -0.03333,0.03203 -0.01757,0.01761 -0.0313,0.03203 -0.03055,0.03203 6.95e-4,0 0.01576,-0.01441 0.03333,-0.03203 z m 0.08633,-0.08912 c 0.01911,-0.01914 0.03412,-0.03481 0.03333,-0.03481 -6.95e-4,0 -0.017,0.01566 -0.03612,0.03481 -0.01911,0.01915 -0.03412,0.03481 -0.03333,0.03481 6.95e-4,0 0.017,-0.01566 0.03612,-0.03481 z"
       id="path129706" />
    <path
       style="opacity:0.874;fill:#5982a2;fill-opacity:1;stroke-width:0;stroke-miterlimit:4;stroke-dasharray:none"
       d="m 21.443667,15.396508 c 3.57e-4,-0.0017 0.0025,-0.01222 0.0044,-0.02332 0.0088,-0.04778 0.03034,-0.145981 0.04528,-0.206091 0.08371,-0.337097 0.22036,-0.657862 0.408846,-0.959699 0.137434,-0.220083 0.304646,-0.432158 0.492762,-0.624976 l 0.02784,-0.02855 0.0083,-4.22e-4 0.0083,-4.22e-4 -0.02848,0.02897 c -0.168395,0.171143 -0.325394,0.366919 -0.455734,0.568303 -0.234666,0.362566 -0.396811,0.761955 -0.478382,1.178325 -0.0046,0.02336 -0.0094,0.0489 -0.01076,0.05674 l -0.0025,0.01427 h -0.01034 c -0.01002,0 -0.01034,-9.9e-5 -0.0096,-0.0031 z"
       id="path129745" />
    <path
       style="opacity:0.874;fill:#5982a2;fill-opacity:1;stroke-width:0;stroke-miterlimit:4;stroke-dasharray:none"
       d="m 21.447752,15.398658 c -0.0018,-3.32e-4 -0.0032,-0.0014 -0.0032,-0.0025 0,-0.01 0.03572,-0.173828 0.05207,-0.238839 0.04814,-0.191419 0.114848,-0.38098 0.198692,-0.564663 0.02185,-0.04784 0.07624,-0.156673 0.100924,-0.201913 0.16088,-0.294823 0.355965,-0.557379 0.602495,-0.810865 l 0.02477,-0.02549 0.006,4.23e-4 0.006,4.24e-4 -0.03735,0.03869 c -0.05731,0.05937 -0.103683,0.109985 -0.14824,0.161829 -0.406682,0.473185 -0.670172,1.015791 -0.780343,1.606955 -0.0032,0.01685 -0.006,0.03205 -0.0064,0.03377 -6.95e-4,0.0027 -0.0015,0.0031 -0.0066,0.0029 -0.0032,-1.05e-4 -0.0073,-4.6e-4 -0.009,-7.92e-4 z"
       id="path129784" />
    <path
       style="opacity:0.874;fill:#5982a2;fill-opacity:1;stroke-width:0;stroke-miterlimit:4;stroke-dasharray:none"
       d=""
       id="path129823" />
    <path
       style="opacity:0.874;fill:#5982a2;fill-opacity:1;stroke-width:0;stroke-miterlimit:4;stroke-dasharray:none"
       d="m 21.44552,15.39719 c -0.0028,-0.0045 0.04202,-0.205454 0.06436,-0.288583 0.05433,-0.202162 0.128851,-0.40091 0.219832,-0.586247 0.04312,-0.08783 0.07456,-0.146942 0.116698,-0.219388 0.132451,-0.227713 0.289054,-0.438891 0.475487,-0.641182 0.03651,-0.03961 0.101861,-0.107225 0.103508,-0.107085 10e-4,7.7e-5 0.0028,5.47e-4 0.0047,10e-4 0.0036,10e-4 0.0076,-0.0035 -0.04075,0.04686 -0.05485,0.05716 -0.09373,0.09966 -0.135125,0.1477 -0.251812,0.292225 -0.446494,0.605834 -0.588185,0.947509 -0.07675,0.185065 -0.138522,0.38476 -0.180958,0.584971 -0.0062,0.02905 -0.02239,0.112064 -0.02239,0.11451 0,0.0013 -0.0164,0.0012 -0.01718,-1.07e-4 z"
       id="path129862" />
    <path
       style="opacity:0.874;fill:#5982a2;fill-opacity:1;stroke-width:0;stroke-miterlimit:4;stroke-dasharray:none"
       d="m 21.445507,15.397166 c -0.0022,-0.0036 0.04043,-0.198321 0.05772,-0.263317 0.02185,-0.08223 0.03757,-0.135207 0.06113,-0.206268 0.04032,-0.121607 0.08832,-0.242192 0.142165,-0.357179 0.01693,-0.03617 0.07252,-0.146663 0.08861,-0.176153 0.01911,-0.03499 0.02042,-0.03736 0.04018,-0.07182 0.01772,-0.03092 0.04083,-0.06997 0.05348,-0.0904 0.01397,-0.02256 0.01732,-0.02791 0.03636,-0.05779 0.07894,-0.123953 0.179888,-0.261033 0.27832,-0.377953 0.02278,-0.02705 0.07348,-0.08525 0.09047,-0.103833 0.03447,-0.0377 0.05152,-0.05596 0.07932,-0.08497 0.05634,-0.05877 0.0505,-0.0533 0.05558,-0.05198 l 0.0044,0.0012 -0.0246,0.02576 c -0.01351,0.01417 -0.03062,0.03203 -0.03798,0.03968 -0.112402,0.116864 -0.234106,0.264679 -0.333632,0.40522 -0.218481,0.308505 -0.382834,0.645657 -0.487208,0.99946 -0.03401,0.115272 -0.0593,0.221814 -0.08514,0.358584 l -0.0025,0.01288 h -0.0081 c -0.0044,0 -0.0084,-4.88e-4 -0.0087,-0.0011 z"
       id="path129901" />
    <path
       style="opacity:0.874;fill:#5982a2;fill-opacity:1;stroke-width:0;stroke-miterlimit:4;stroke-dasharray:none"
       d="m 21.593268,14.829277 c -10e-4,-0.0017 0.02203,-0.06641 0.03444,-0.09665 0.09514,-0.23226 0.226334,-0.473187 0.368146,-0.676063 0.04659,-0.06665 0.132654,-0.180641 0.134779,-0.178514 3.57e-4,3.56e-4 -0.0072,0.01065 -0.01668,0.02287 -0.156428,0.200471 -0.292501,0.419991 -0.400744,0.646503 -0.0139,0.02911 -0.01597,0.03426 -0.01397,0.03506 0.0022,8.33e-4 0.0018,9.72e-4 -3.56e-4,10e-4 -0.0022,8.1e-5 -0.0047,0.0044 -0.01237,0.02133 -0.03166,0.07001 -0.06373,0.148361 -0.09105,0.222338 -6.95e-4,0.0019 -0.0018,0.0028 -0.0022,0.0021 z"
       id="path129940" />
    <path
       style="opacity:0.874;fill:#5982a2;fill-opacity:1;stroke-width:0;stroke-miterlimit:4;stroke-dasharray:none"
       d="m 20.774821,15.398551 c 0,-0.0023 0.01012,-0.06074 0.01547,-0.08942 0.02641,-0.141401 0.06794,-0.308322 0.113678,-0.456743 l 0.0054,-0.01741 0.01943,-3.64e-4 c 0.01069,-1.99e-4 0.02035,-7.57e-4 0.02153,-0.0012 0.0037,-0.0016 -0.0084,-0.0044 -0.01914,-0.0046 -0.0056,-5.9e-5 -0.01009,-6.56e-4 -0.01009,-0.0013 0,-0.0014 0.03422,-0.102504 0.05638,-0.166578 0.03794,-0.109685 0.06828,-0.187685 0.118085,-0.303567 0.07188,-0.167244 0.163533,-0.342988 0.266812,-0.511593 0.01005,-0.01639 0.01825,-0.03 0.01825,-0.03026 0,-2.62e-4 0.0049,-0.0079 0.01091,-0.01686 0.01404,-0.02108 0.04247,-0.06549 0.04483,-0.07 0.0041,-0.0079 -0.0028,6.37e-4 -0.01212,0.01446 -0.008,0.01217 -0.0398,0.06201 -0.04458,0.06986 -0.001,0.0015 -0.0076,0.01211 -0.01479,0.0236 -0.07905,0.12577 -0.161761,0.278872 -0.237325,0.439336 -0.01037,0.02206 -0.0128,0.02659 -0.01287,0.02417 -4.6e-5,-0.0018 0.01533,-0.03493 0.03897,-0.08405 0.03404,-0.07076 0.06502,-0.130932 0.100657,-0.195647 0.04015,-0.07291 0.08234,-0.144572 0.131766,-0.223781 0.02652,-0.04249 0.08375,-0.127856 0.119913,-0.178854 0.0081,-0.01137 0.01558,-0.022 0.01672,-0.0236 0.01611,-0.02302 0.03337,-0.04389 0.03337,-0.04036 0,3.28e-4 -0.006,0.0089 -0.01326,0.019 -0.0073,0.01012 -0.01294,0.01873 -0.01255,0.01913 0.001,9.04e-4 -6.95e-4,0.0029 0.0159,-0.01959 l 0.01416,-0.01914 h 0.429101 0.429098 l -0.02567,0.02611 c -0.103238,0.105034 -0.194119,0.208542 -0.288234,0.328285 -0.154467,0.196526 -0.290797,0.417741 -0.403428,0.654619 -0.0139,0.02923 -0.01397,0.02942 -0.01258,0.03595 6.95e-4,0.0036 0.0018,0.0063 0.0018,0.006 2.74e-4,-2.74e-4 0.0044,-0.0089 0.0091,-0.01925 0.02363,-0.05175 0.08422,-0.171065 0.112873,-0.22232 0.130301,-0.233099 0.276441,-0.438662 0.457185,-0.643073 0.01151,-0.01302 0.02128,-0.02399 0.02167,-0.02437 3.57e-4,-3.83e-4 0.0076,-0.0082 0.01593,-0.01741 0.02595,-0.02856 0.06184,-0.06649 0.104007,-0.109906 0.01294,-0.01333 0.01359,-0.01378 0.01769,-0.01253 l 0.0042,0.0013 -0.0071,0.0077 c -0.0039,0.0042 -0.01943,0.0205 -0.03451,0.0362 -0.02944,0.03068 -0.07887,0.08352 -0.08998,0.09619 -0.0038,0.0042 -0.01404,0.01587 -0.02285,0.02576 -0.01946,0.02183 -0.04824,0.05555 -0.07534,0.08831 -0.220395,0.26639 -0.396704,0.555043 -0.526902,0.862659 -0.08113,0.191688 -0.143958,0.390634 -0.18865,0.597386 -0.0047,0.02144 -0.02149,0.106155 -0.02431,0.122257 l -10e-4,0.0053 -0.0086,-4.13e-4 -0.0086,-4.14e-4 3.56e-4,-0.0049 c 0.0018,-0.02108 0.04353,-0.207124 0.06167,-0.27502 0.04064,-0.152195 0.0966,-0.314395 0.15482,-0.448736 0.0058,-0.01321 0.0099,-0.02402 0.0093,-0.02402 -0.0018,0 2.21e-4,-0.0055 0.0025,-0.0074 0.0015,-9.31e-4 0.0051,-0.008 0.0086,-0.01562 0.0061,-0.01354 0.0063,-0.01412 0.0047,-0.02089 l -0.0015,-0.007 -0.0035,0.0077 c -0.03283,0.07166 -0.05633,0.127683 -0.07861,0.187293 -0.01355,0.03629 -0.01486,0.03864 -0.02242,0.04023 -0.0032,6.85e-4 -0.0059,0.0018 -0.0059,0.0024 0,0.0021 0.0053,0.004 0.01105,0.004 0.0061,0 0.0065,5.59e-4 0.0042,0.0065 -0.0053,0.01369 -0.02805,0.08036 -0.03866,0.113538 -0.03625,0.113572 -0.06311,0.215691 -0.09057,0.34434 -0.0069,0.03203 -0.01961,0.09649 -0.01961,0.09893 0,3.48e-4 -0.150075,6.31e-4 -0.333503,6.31e-4 -0.183428,0 -0.333507,-4.92e-4 -0.333507,-0.0011 z m 0.771449,-0.565674 c -0.02239,-0.0013 -0.303645,-0.0014 -0.296605,-1.52e-4 0.0028,4.74e-4 0.07474,9.38e-4 0.160139,10e-4 0.0854,9.3e-5 0.146807,-3.03e-4 0.136466,-8.83e-4 z m -0.09578,-1.115554 c 0.0046,3.29e-4 0.0054,-1.06e-4 0.0067,-0.0033 6.95e-4,-0.002 0.0015,-0.007 0.0015,-0.01106 0,-0.008 -0.0042,-0.0014 0.05883,-0.09169 0.0044,-0.0063 0.008,-0.01171 0.008,-0.01202 2.8e-5,-0.0038 -0.02916,0.03659 -0.06419,0.0889 -0.01066,0.0159 -0.01936,0.02935 -0.01936,0.02989 0,5.45e-4 6.95e-4,5.18e-4 0.0018,-6e-5 10e-4,-5.79e-4 0.004,-9.03e-4 0.0069,-6.73e-4 z"
       id="path129979" />
    <path
       style="opacity:0.874;fill:#5982a2;fill-opacity:1;stroke-width:0;stroke-miterlimit:4;stroke-dasharray:none"
       d="m 20.774821,15.398024 c 0,-0.0044 0.01515,-0.08818 0.02363,-0.130671 0.02613,-0.131123 0.05891,-0.260365 0.104803,-0.413219 l 0.006,-0.01984 0.01975,-9e-6 c 0.01087,-4e-6 0.0201,-5.7e-4 0.02053,-0.0013 0.001,-0.0019 -0.0018,-0.0026 -0.01572,-0.0037 -0.007,-5.49e-4 -0.01273,-0.0014 -0.01273,-0.0019 0,-0.0034 0.0669,-0.198255 0.0861,-0.250763 0.0128,-0.03506 0.03575,-0.09433 0.04552,-0.117667 0.0025,-0.0061 0.0086,-0.02054 0.0133,-0.03203 0.03108,-0.07521 0.05715,-0.134055 0.09036,-0.204003 0.01273,-0.02679 0.05313,-0.107125 0.0648,-0.128807 0.0025,-0.0046 0.01034,-0.01932 0.01747,-0.03272 0.04957,-0.09319 0.111811,-0.199198 0.168435,-0.286857 0.01508,-0.02336 0.0282,-0.04403 0.02909,-0.04595 0.0047,-0.0096 -0.0081,0.0085 -0.02952,0.04205 -0.0404,0.0633 -0.04387,0.06887 -0.07131,0.114538 -0.08016,0.133438 -0.133877,0.234964 -0.21693,0.41006 -0.0018,0.0034 -0.0032,0.0055 -0.0035,0.0047 -0.0015,-0.0047 0.08443,-0.179427 0.123168,-0.250408 0.005,-0.0092 0.01101,-0.02016 0.0133,-0.02437 0.03777,-0.06934 0.08724,-0.153197 0.140493,-0.238119 0.01508,-0.02406 0.06147,-0.09394 0.08283,-0.124798 0.05406,-0.07809 0.08126,-0.114423 0.08126,-0.10857 0,3.16e-4 -0.0051,0.0076 -0.01119,0.01623 -0.01155,0.01611 -0.01451,0.0208 -0.01322,0.0208 3.57e-4,0 0.007,-0.0085 0.01465,-0.0188 l 0.01394,-0.0188 h 0.429015 0.429019 l -0.03756,0.03871 c -0.07728,0.07965 -0.131282,0.139442 -0.196286,0.217302 -0.165387,0.198092 -0.293927,0.38899 -0.413217,0.613678 -0.01611,0.03034 -0.06762,0.13332 -0.07575,0.151436 -0.0044,0.0099 -0.0036,0.01309 0.001,0.0042 0.0015,-0.0028 0.0028,-0.0042 0.0028,-0.0031 3.2e-5,0.0012 -0.001,0.0046 -0.0028,0.0076 -0.0028,0.0057 -0.0035,0.0091 -0.0018,0.009 6.95e-4,-6e-6 0.0066,-0.01176 0.01351,-0.02611 0.01476,-0.0309 0.05874,-0.118919 0.07442,-0.148875 0.07782,-0.148707 0.193879,-0.330304 0.301537,-0.471825 0.100777,-0.132476 0.195516,-0.242095 0.321187,-0.371644 0.01857,-0.01914 0.019,-0.01947 0.02324,-0.01818 l 0.0044,0.0013 -0.0071,0.0077 c -0.0039,0.0042 -0.02381,0.0252 -0.04423,0.04665 -0.06146,0.06456 -0.09236,0.0985 -0.133784,0.14691 -0.195017,0.22792 -0.349642,0.458933 -0.478143,0.714357 -0.126245,0.250938 -0.216609,0.504584 -0.278063,0.780501 -0.0047,0.02114 -0.02535,0.123463 -0.0283,0.14036 l -10e-4,0.0053 -0.0086,-4.14e-4 -0.0086,-4.13e-4 3.57e-4,-0.0056 c 0.001,-0.013 0.02763,-0.136415 0.04487,-0.20818 0.01518,-0.06321 0.03333,-0.129261 0.05287,-0.192167 0.0113,-0.03643 0.03723,-0.114384 0.04367,-0.131352 0.0022,-0.006 0.0028,-0.0093 0.0018,-0.0089 -0.0022,6.81e-4 -0.0037,0.0049 -0.01732,0.0449 -0.04478,0.131098 -0.07776,0.251942 -0.110377,0.404414 -0.0067,0.03153 -0.01953,0.0959 -0.01953,0.09835 0,3.47e-4 -0.150075,6.31e-4 -0.333503,6.31e-4 -0.25224,0 -0.333507,-3.96e-4 -0.333507,-0.0016 z m 0.821734,-0.579059 c 3.57e-4,-0.009 3.57e-4,-0.009 6.95e-4,-0.0017 2.81e-4,0.004 0.001,0.0073 0.0015,0.0073 6.95e-4,0 0.0044,-0.0089 0.0085,-0.01984 0.0205,-0.05518 0.07277,-0.181814 0.08208,-0.198835 0.0018,-0.0034 0.0032,-0.015 0.0018,-0.01248 -0.0015,0.0019 -0.0015,0.0019 -0.0015,0 0,-0.0012 6.95e-4,-0.003 0.0015,-0.0041 6.95e-4,-0.0011 10e-4,-0.0026 3.56e-4,-0.0033 -6.95e-4,-0.0013 -0.01436,0.02587 -0.01436,0.02883 0,9.25e-4 6.95e-4,0.0024 0.0018,0.0034 10e-4,9.17e-4 10e-4,0.0017 3.45e-4,0.0017 -6.95e-4,1.1e-5 -3.56e-4,6.28e-4 6.95e-4,0.0014 0.0018,0.0012 0.0018,0.0013 -1.36e-4,0.0014 -10e-4,1.1e-5 -0.0028,0.0014 -0.0038,0.0032 l -0.0018,0.0031 6.95e-4,-0.0031 c 3.56e-4,-0.0017 10e-4,-0.0045 0.0018,-0.0063 0.0022,-0.0074 -0.0025,6.91e-4 -0.01002,0.0171 -0.0293,0.06523 -0.06726,0.159824 -0.06535,0.16291 3.57e-4,7.51e-4 2.39e-4,0.0014 -3.56e-4,0.0014 -6.95e-4,0 -0.0028,0.0042 -0.0049,0.0094 -0.0058,0.01502 -0.0082,0.01827 -0.01472,0.0193 -0.0032,4.92e-4 -0.0056,0.0015 -0.0056,0.0021 0,0.0018 0.0064,0.004 0.01176,0.004 0.0032,0 0.005,8.2e-4 0.0057,0.0024 0.0015,0.003 0.0032,-0.006 0.0035,-0.01915 z m -0.09694,0.01382 c -0.0022,-5.27e-4 -0.05932,-8.89e-4 -0.126715,-8.06e-4 -0.07063,8.9e-5 -0.103372,4.6e-4 -0.07728,8.83e-4 0.06732,0.0011 0.208803,10e-4 0.204,-7.6e-5 z m -0.04886,-1.115872 c 0.0051,-1.09e-4 0.0058,-5.16e-4 0.0065,-0.0043 3.57e-4,-0.0023 0.001,-0.007 0.001,-0.01047 1.89e-4,-0.0072 -0.0028,-0.0026 0.03633,-0.05846 0.03091,-0.04424 0.03333,-0.04794 0.02624,-0.0402 -0.0076,0.0083 -0.07156,0.100937 -0.07765,0.112433 -0.0015,0.0026 -0.0015,0.0031 2.2e-5,0.0022 10e-4,-6.01e-4 0.0043,-0.0012 0.0074,-0.0012 z"
       id="path130018" />
    <path
       style="opacity:0.874;fill:#5982a2;fill-opacity:1;stroke-width:0;stroke-miterlimit:4;stroke-dasharray:none"
       d="m 20.774821,15.397788 c 0,-0.0045 0.01486,-0.08651 0.0236,-0.130435 0.0247,-0.123825 0.05533,-0.246647 0.09361,-0.375281 0.0062,-0.02068 0.01252,-0.04214 0.01416,-0.04769 l 0.0028,-0.0101 0.01811,-9.8e-5 c 0.0099,-5.4e-5 0.01936,-5.88e-4 0.02089,-0.0012 l 0.0028,-0.0011 -0.0028,-8.13e-4 c -0.0015,-4.49e-4 -0.0083,-0.0012 -0.01497,-0.0018 -0.0067,-5.21e-4 -0.01219,-0.0014 -0.01219,-0.0019 0,-0.0026 0.04128,-0.123875 0.07589,-0.22287 0.02239,-0.06407 0.05782,-0.152865 0.101672,-0.25483 0.06496,-0.151063 0.156261,-0.327062 0.24922,-0.480415 0.02944,-0.04856 0.03518,-0.05783 0.04863,-0.07845 0.02549,-0.03905 0.04007,-0.06241 0.03941,-0.06306 -6.95e-4,-6.95e-4 -0.01964,0.02758 -0.04062,0.06074 -0.0075,0.01187 -0.01879,0.02973 -0.0251,0.03969 -0.07544,0.119254 -0.157053,0.268945 -0.230417,0.422627 -0.02349,0.04918 -0.02424,0.05071 -0.02474,0.0492 -0.0015,-0.0044 0.07638,-0.163624 0.116691,-0.238578 0.07627,-0.141811 0.156349,-0.273445 0.24102,-0.396169 0.05485,-0.0795 0.08333,-0.117586 0.08333,-0.111442 0,3.6e-4 -0.0051,0.0077 -0.01123,0.01624 -0.0062,0.0086 -0.01183,0.01673 -0.01258,0.01814 -0.0032,0.0062 6.95e-4,0.0013 0.01394,-0.01624 l 0.01401,-0.0188 h 0.429034 0.429033 l -0.03676,0.03795 c -0.108944,0.112462 -0.19183,0.207503 -0.283303,0.324848 -0.159669,0.204831 -0.299175,0.434718 -0.41193,0.678803 -0.0051,0.0111 -0.01016,0.02176 -0.01116,0.02367 -0.0086,0.01622 -0.04713,0.107698 -0.06269,0.148654 -0.02281,0.06002 -0.02328,0.06101 -0.02955,0.06239 -0.0094,0.0021 -0.0093,0.004 3.07e-4,0.0053 0.0042,5.88e-4 0.0047,4.82e-4 0.0022,-4.49e-4 -0.0032,-0.0012 -0.0032,-0.0012 10e-4,-0.0014 0.0025,-7.6e-5 0.0045,-6.7e-4 0.0045,-0.0013 0,-6.49e-4 0.0015,-0.0026 0.0028,-0.0044 0.0015,-0.0018 0.0028,-0.0041 0.0028,-0.0051 0,-10e-4 6.95e-4,-0.0019 0.0015,-0.0019 6.95e-4,0 0.001,6.27e-4 6.95e-4,0.0014 -3.57e-4,7.65e-4 -1.57e-4,0.0014 6.95e-4,0.0014 0.001,0 0.001,-0.0011 6.95e-4,-0.003 -6.95e-4,-0.002 -3.57e-4,-0.0026 6.94e-4,-0.002 0.001,6.09e-4 0.001,10e-5 6.95e-4,-0.0014 -6.95e-4,-0.0016 -3.56e-4,-0.0021 6.95e-4,-0.0014 10e-4,6.31e-4 0.0015,2.71e-4 6.95e-4,-9.87e-4 -3.56e-4,-0.0011 9.3e-5,-0.0028 10e-4,-0.0039 0.001,-0.0011 0.0043,-0.0082 0.0072,-0.01585 0.01896,-0.04957 0.05596,-0.13968 0.06888,-0.167797 0.0037,-0.008 0.0094,-0.02089 0.01276,-0.02855 0.01223,-0.02809 0.09507,-0.191936 0.116534,-0.23046 0.140868,-0.252838 0.302703,-0.476905 0.500865,-0.69347 0.05651,-0.06177 0.113105,-0.119761 0.116823,-0.119734 0.0081,5.7e-5 0.007,0.0022 -0.01051,0.02035 -0.103311,0.107016 -0.168431,0.180349 -0.247783,0.279024 -0.09863,0.122651 -0.193535,0.258477 -0.27365,0.391651 -0.148957,0.247601 -0.264578,0.509847 -0.344876,0.782234 -0.03237,0.109814 -0.05746,0.214247 -0.08028,0.334202 -0.0032,0.01647 -0.006,0.03135 -0.0063,0.03307 -6.95e-4,0.0028 -0.0015,0.0031 -0.0091,0.0031 -0.0057,0 -0.0086,-5.91e-4 -0.0091,-0.0019 -0.0018,-0.0045 0.03133,-0.157354 0.05171,-0.239037 0.02556,-0.102435 0.06144,-0.219858 0.09738,-0.31882 0.0025,-0.0072 0.0045,-0.01344 0.0042,-0.01377 -0.001,-0.0011 -0.006,0.0059 -0.0052,0.0077 3.57e-4,0.0011 -3.56e-4,0.0018 -0.0018,0.0018 -0.0022,1.7e-5 -0.0022,2.87e-4 -6.94e-4,0.0012 0.0015,9.94e-4 2.17e-4,0.006 -0.0072,0.02679 -0.0486,0.13636 -0.0871,0.274535 -0.122137,0.438331 -0.0067,0.03153 -0.01953,0.0959 -0.01953,0.09835 0,3.47e-4 -0.150075,6.31e-4 -0.333503,6.31e-4 -0.276691,0 -0.333507,-3.16e-4 -0.333507,-0.0019 z m 0.65413,-0.565941 c -0.01971,-2.18e-4 -0.05199,-2.18e-4 -0.07171,0 -0.01971,2.17e-4 -0.0036,3.95e-4 0.03586,3.95e-4 0.03944,0 0.05558,-1.78e-4 0.03586,-3.95e-4 z m 0.02652,-1.116111 c 6.94e-4,-9.73e-4 0.0018,-0.0058 0.0025,-0.01079 10e-4,-0.01062 -6.95e-4,-0.0077 0.03479,-0.05847 0.02884,-0.04135 0.03322,-0.04796 0.02959,-0.04456 -0.0054,0.0051 -0.07902,0.11179 -0.07902,0.114623 0,0.0017 0.01076,9.73e-4 0.01226,-8.33e-4 z"
       id="path130057" />
    <path
       style="opacity:0.874;fill:#5982a2;fill-opacity:1;stroke-width:0;stroke-miterlimit:4;stroke-dasharray:none"
       d="m 22.449314,13.527372 c 0.140782,-0.137876 0.266528,-0.247299 0.417056,-0.36292 0.281415,-0.216155 0.612298,-0.416313 0.959116,-0.580189 l 0.04494,-0.02123 0.02228,3.81e-4 0.02228,3.81e-4 -0.02891,0.01315 c -0.24224,0.110153 -0.483108,0.240663 -0.698295,0.378359 -0.265201,0.169702 -0.511406,0.364127 -0.713773,0.563664 l -0.03383,0.03334 -0.0087,4.89e-4 -0.0087,4.88e-4 z"
       id="path130096" />
    <path
       style="opacity:0.874;fill:#5982a2;fill-opacity:1;stroke-width:0;stroke-miterlimit:4;stroke-dasharray:none"
       d="m 23.878259,12.560676 c 0.0025,-0.0023 0.09476,-0.04328 0.16687,-0.07421 0.261426,-0.112126 0.547507,-0.212692 0.867532,-0.304963 0.715513,-0.206299 1.458329,-0.33048 2.356127,-0.393888 0.156435,-0.01105 0.420014,-0.0255 0.452001,-0.02479 0.0283,6.35e-4 0.01497,0.0017 -0.116409,0.0093 -1.451867,0.08429 -2.677777,0.343122 -3.639178,0.768367 -0.04524,0.02001 -0.04902,0.02119 -0.068,0.02119 -0.01105,0 -0.01957,-4.64e-4 -0.01893,-10e-4 z"
       id="path130135" />
  </g>
</svg>
