<?xml version="1.0" encoding="UTF-8" standalone="no"?>
<!-- Created with Inkscape (http://www.inkscape.org/) -->

<svg
   width="210mm"
   height="297mm"
   viewBox="0 0 210 297"
   version="1.1"
   id="svg6813"
   inkscape:version="1.1.2 (b8e25be833, 2022-02-05)"
   sodipodi:docname="Trazit - Serv orange.svg"
   xmlns:inkscape="http://www.inkscape.org/namespaces/inkscape"
   xmlns:sodipodi="http://sodipodi.sourceforge.net/DTD/sodipodi-0.dtd"
   xmlns="http://www.w3.org/2000/svg"
   xmlns:svg="http://www.w3.org/2000/svg">
  <sodipodi:namedview
     id="namedview6815"
     pagecolor="#505050"
     bordercolor="#eeeeee"
     borderopacity="1"
     inkscape:pageshadow="0"
     inkscape:pageopacity="0"
     inkscape:pagecheckerboard="0"
     inkscape:document-units="mm"
     showgrid="false"
     showguides="false"
     inkscape:guide-bbox="true"
     inkscape:lockguides="true"
     inkscape:zoom="0.35355339"
     inkscape:cx="1002.6774"
     inkscape:cy="783.47431"
     inkscape:window-width="1920"
     inkscape:window-height="1017"
     inkscape:window-x="-8"
     inkscape:window-y="-8"
     inkscape:window-maximized="1"
     inkscape:current-layer="layer1">
    <sodipodi:guide
       position="104.48902,93.201977"
       orientation="0,-1"
       id="guide67029"
       inkscape:locked="true" />
  </sodipodi:namedview>
  <defs
     id="defs6810">
    <linearGradient
       id="linearGradient46545"
       inkscape:swatch="solid">
      <stop
         style="stop-color:#000000;stop-opacity:1;"
         offset="0"
         id="stop46543" />
    </linearGradient>
    <linearGradient
       id="linearGradient46502"
       inkscape:swatch="solid">
      <stop
         style="stop-color:#000000;stop-opacity:1;"
         offset="0"
         id="stop46500" />
    </linearGradient>
    <linearGradient
       id="linearGradient46459"
       inkscape:swatch="solid">
      <stop
         style="stop-color:#000000;stop-opacity:1;"
         offset="0"
         id="stop46457" />
    </linearGradient>
    <linearGradient
       id="linearGradient31882"
       inkscape:swatch="solid">
      <stop
         style="stop-color:#000000;stop-opacity:1;"
         offset="0"
         id="stop31880" />
    </linearGradient>
  </defs>
  <g
     inkscape:label="Capa 1"
     inkscape:groupmode="layer"
     id="layer1">
    <path
       style="font-variation-settings:normal;opacity:1;fill:none;fill-opacity:1;stroke:#000000;stroke-width:3.62504;stroke-linecap:butt;stroke-linejoin:miter;stroke-miterlimit:4;stroke-dasharray:none;stroke-dashoffset:0;stroke-opacity:1;stop-color:#000000;stop-opacity:1"
       d="M 31.693373,13.210139 30.053434,161.87369 c 0,0 0.410879,12.35523 14.770823,12.35523 14.359962,0 146.473193,0.40016 146.473193,0.40016 0,0 14.36028,-0.40016 14.77081,-13.94979 0.41087,-13.55107 1.63994,-143.083849 1.63994,-143.083849 0,0 3.27986,-14.3481593 -11.48811,-14.7468884 -14.77048,-0.400158 -152.217929,-0.400158 -152.217929,-0.400158 0,0 -11.898268,-0.7967428 -12.308788,10.7613864 z"
       id="path8047" />
    <path
       style="font-variation-settings:normal;opacity:1;fill:none;fill-opacity:1;stroke:#000000;stroke-width:2.32234;stroke-linecap:butt;stroke-linejoin:miter;stroke-miterlimit:4;stroke-dasharray:none;stroke-dashoffset:0;stroke-opacity:1;stop-color:#000000;stop-opacity:1"
       d="m 1.8008529,39.56447 v 160.3085 l 2.1651489,2.16514 H 170.39096 l 1.99366,-1.99365 v -8.76809 l -2.90829,-2.90829 H 19.323482 l -1.972198,-1.97221 V 36.243158 L 15.354059,34.245942 H 4.072464 l -2.2723254,2.268753 v 3.051204"
       id="path18119" />
    <path
       style="opacity:0.874;fill:none;fill-opacity:1;stroke-width:0.0641586;stroke-linejoin:round;stroke-miterlimit:4;stroke-dasharray:none"
       d="M 9.6175068,184.25323 8.9029435,183.44221 V 112.33878 41.235488 l 0.7610088,-0.764589 c 0.6967047,-0.696703 1.1040097,-0.764587 4.8855107,-0.764587 3.577117,0 4.195933,0.107186 4.668271,0.639537 0.500195,0.589519 0.54664,5.7194 0.54664,66.652611 v 66.01248 l 1.086138,1.12187 1.082569,1.12188 h 62.03985 62.039129 l 0.88605,0.98252 c 0.83248,0.92536 0.88607,1.17547 0.88607,4.32349 0,2.79039 -0.10715,3.43708 -0.60023,3.92119 -0.55379,0.53593 -5.79729,0.58239 -68.723546,0.58239 H 10.339228 Z"
       id="path36582" />
    <path
       style="opacity:0.874;fill:none;fill-opacity:1;stroke-width:0.0641586;stroke-linejoin:round;stroke-miterlimit:4;stroke-dasharray:none"
       d="M 9.6175068,184.25323 8.9029435,183.44221 V 112.33878 41.235488 l 0.7610088,-0.764589 c 0.6967047,-0.696703 1.1040097,-0.764587 4.8855107,-0.764587 3.577117,0 4.195933,0.107186 4.668271,0.639537 0.500195,0.589519 0.54664,5.7194 0.54664,66.652611 v 66.01248 l 1.086138,1.12187 1.082569,1.12188 h 62.03985 62.039129 l 0.88605,0.98252 c 0.83248,0.92536 0.88607,1.17547 0.88607,4.32349 0,2.79039 -0.10715,3.43708 -0.60023,3.92119 -0.55379,0.53593 -5.79729,0.58239 -68.723546,0.58239 H 10.339228 Z"
       id="path36621" />
    <path
       style="opacity:0.874;fill:none;fill-opacity:1;stroke-width:0.0641586;stroke-linejoin:round;stroke-miterlimit:4;stroke-dasharray:none"
       d="m 59.418243,159.85433 -19.416593,-0.17866 -1.739971,-0.83961 c -2.140133,-1.02899 -4.126272,-3.35132 -4.850136,-5.66903 -0.500197,-1.59349 -0.48591,-6.53758 0.14292,-67.831669 0.425165,-40.424496 0.825327,-66.622335 1.028979,-67.428012 0.43945,-1.754263 2.100818,-3.710749 3.921178,-4.606818 1.464873,-0.71814 1.861463,-0.73243 31.757897,-0.81818 16.651933,-0.07146 46.127133,0.03146 65.499423,0.178642 l 35.22211,0.2501 1.63638,0.896782 c 0.98967,0.54307 2.02223,1.4863 2.62244,2.397375 l 0.98968,1.504165 -0.10714,11.786795 c -0.51807,73.80507 -1.17903,121.57285 -1.70782,123.41822 -0.88605,3.08693 -4.26025,6.13349 -7.6398,6.90486 -1.68281,0.38231 -67.933946,0.40016 -107.399162,0.0315 z M 75.05048,119.21829 v -7.70555 H 64.35483 53.659175 V 84.193845 56.874874 H 64.35483 75.05048 V 49.694898 42.51492 H 59.183504 43.317599 l -1.41127,1.47201 -1.411268,1.47201 V 83.990904 122.5228 l 2.047227,2.19729 2.047245,2.1973 h 15.22993 15.230303 z m 55.98387,5.01768 2.5939,-2.68676 V 90.535595 59.521633 l -2.04724,-2.197296 -2.04725,-2.197295 H 112.90185 96.269931 l -6.575461,7.004907 -6.576166,7.004906 h 17.685906 17.6859 v 6.129206 6.129187 H 103.11227 87.735126 l -2.393803,2.529557 -2.3938,2.529554 v 17.513261 17.51298 l 2.540295,2.72251 2.540282,2.72251 h 20.20261 20.20298 z M 159.62779,84.719047 V 42.51492 h -6.58225 c -4.16843,0 -6.5815,0.142914 -6.5815,0.357283 0,0.178644 -0.25011,0.357285 -0.49307,0.357285 -0.43589,0 -0.49305,4.857988 -0.49305,41.620683 0,22.891439 0.10715,41.725649 0.21438,41.854279 0.1429,0.14292 3.30487,0.21437 7.07564,0.21437 h 6.85628 z"
       id="path36660" />
    <path
       style="opacity:0.874;fill:none;fill-opacity:1;stroke-width:0.0641586;stroke-linejoin:round;stroke-miterlimit:4;stroke-dasharray:none"
       d="m 59.418243,159.85433 -19.416593,-0.17866 -1.739971,-0.83961 c -2.140133,-1.02899 -4.126272,-3.35132 -4.850136,-5.66903 -0.500197,-1.59349 -0.48591,-6.53758 0.14292,-67.831669 0.425165,-40.424496 0.825327,-66.622335 1.028979,-67.428012 0.43945,-1.754263 2.100818,-3.710749 3.921178,-4.606818 1.464873,-0.71814 1.861463,-0.73243 31.757897,-0.81818 16.651933,-0.07146 46.127133,0.03146 65.499423,0.178642 l 35.22211,0.2501 1.63638,0.896782 c 0.98967,0.54307 2.02223,1.4863 2.62244,2.397375 l 0.98968,1.504165 -0.10714,11.786795 c -0.51807,73.80507 -1.17903,121.57285 -1.70782,123.41822 -0.88605,3.08693 -4.26025,6.13349 -7.6398,6.90486 -1.68281,0.38231 -67.933946,0.40016 -107.399162,0.0315 z M 75.05048,119.21829 v -7.70555 H 64.35483 53.659175 V 84.193845 56.874874 H 64.35483 75.05048 V 49.694898 42.51492 H 59.183504 43.317599 l -1.41127,1.47201 -1.411268,1.47201 V 83.990904 122.5228 l 2.047227,2.19729 2.047245,2.1973 h 15.22993 15.230303 z m 55.98387,5.01768 2.5939,-2.68676 V 90.535595 59.521633 l -2.04724,-2.197296 -2.04725,-2.197295 H 112.90185 96.269931 l -6.575461,7.004907 -6.576166,7.004906 h 17.685906 17.6859 v 6.129206 6.129187 H 103.11227 87.735126 l -2.393803,2.529557 -2.3938,2.529554 v 17.513261 17.51298 l 2.540295,2.72251 2.540282,2.72251 h 20.20261 20.20298 z M 159.62779,84.719047 V 42.51492 h -6.58225 c -4.16843,0 -6.5815,0.142914 -6.5815,0.357283 0,0.178644 -0.25011,0.357285 -0.49307,0.357285 -0.43589,0 -0.49305,4.857988 -0.49305,41.620683 0,22.891439 0.10715,41.725649 0.21438,41.854279 0.1429,0.14292 3.30487,0.21437 7.07564,0.21437 h 6.85628 z"
       id="path36699" />
    <path
       style="opacity:0.874;fill:#000000;fill-opacity:1;stroke-width:0.00594423;stroke-linejoin:round;stroke-miterlimit:4;stroke-dasharray:none"
       d="m 33.05891,118.48585 c 0.0014,-0.0315 0.0085,-0.0315 0.01572,-0.0168 0.0085,0.0253 0.0085,0.0713 -0.0028,0.0713 -0.0071,0.008 -0.01572,-0.008 -0.01572,-0.0315 z"
       id="path47843" />
    <path
       style="opacity:0.874;fill:#000000;fill-opacity:1;stroke-width:0.00694478;stroke-linejoin:round;stroke-miterlimit:4;stroke-dasharray:none"
       d="m 51.736655,251.36902 c 0.106635,-0.007 0.248898,-0.007 0.355578,0 0.106634,0.007 0.01849,0.008 -0.177797,0.008 -0.177781,0 -0.284459,-0.006 -0.177781,-0.008 z"
       id="path48221" />
    <path
       style="opacity:0.874;fill:#000000;fill-opacity:1;stroke-width:0.00697821;stroke-linejoin:round;stroke-miterlimit:4;stroke-dasharray:none"
       d="m 48.39889,6.1377063 c 0.07144,-0.018932 0.321559,-0.071459 0.571655,-0.1071905 0.418022,-0.071459 1.150459,-0.071459 13.450303,-0.071459 12.635347,-0.00968 13.007636,-0.00927 13.007636,0.071459 0,0.07146 -0.214367,0.07146 -6.859135,0.1071905 -14.493224,0.035734 -20.298723,0.07146 -20.171175,0.028596 z"
       id="path48260" />
    <path
       style="opacity:0.874;fill:#000000;fill-opacity:1;stroke-width:0.000738189;stroke-linejoin:round;stroke-miterlimit:4;stroke-dasharray:none"
       d=""
       id="path50654"
       transform="scale(0.26458333)" />
    <path
       style="fill:none;stroke:#000000;stroke-width:0;stroke-linecap:butt;stroke-linejoin:miter;stroke-miterlimit:4;stroke-dasharray:none;stroke-opacity:1"
       d="m 15.786509,286.78582 c -0.408911,1.0845 0.17778,2.10855 1.176935,2.60991"
       id="path51813" />
    <path
       style="font-variation-settings:normal;fill:none;fill-opacity:1;stroke:#000000;stroke-width:0.319217;stroke-linecap:butt;stroke-linejoin:miter;stroke-miterlimit:4;stroke-dasharray:none;stroke-dashoffset:0;stroke-opacity:1;stop-color:#000000"
       d="m 33.818133,110.77458 9.152192,10.70388 c 0,0 2.254452,1.42557 2.254452,1.42557 h 24.162397 l 2.500994,-1.48988 12.272696,-14.35423 0.660982,-3.42636 V 97.5962 L 83.885754,94.566445 71.892097,80.538846 69.391103,79.081139 53.709922,79.366962 48.374233,73.127359 53.655247,66.950992 h 11.281239 l 6.588679,7.706258 9.579498,-11.202994 -9.211495,-10.773538 c 0,0 -1.282649,-1.718536 -3.815086,-1.718536 -2.533138,0 -5.460366,0 -5.460366,0 H 49.835531 c 0,0 -2.350929,0.285827 -4.606469,2.926156 -2.258023,2.640328 -9.85388,11.524549 -9.85388,11.524549 0,0 -1.800718,2.393801 -1.800718,4.424603 0,2.036519 0,6.529719 0,6.529719 0,0 0.732436,3.283438 2.179435,4.691481 1.447,1.411268 7.946704,9.294691 7.946704,9.294691 l 2.179435,2.550991 c 0,0 2.118689,2.154412 4.591453,2.154412 2.472406,0 14.70402,0 14.70402,0 l 5.002689,5.851916 -5.246357,6.1367 H 49.92235 l -6.467916,-7.564049 z"
       id="path59426" />
    <path
       style="font-variation-settings:normal;fill:none;fill-opacity:1;stroke:#000000;stroke-width:0.304341;stroke-linecap:butt;stroke-linejoin:miter;stroke-miterlimit:4;stroke-dasharray:none;stroke-dashoffset:0;stroke-opacity:1;stop-color:#000000"
       d="m 87.735847,81.39204 v 27.9159 L 100.84316,123.053 h 17.32969 l 12.91509,-13.74506 h -30.24478 v -5.82159 h 16.71337 L 129.6967,90.566675 V 81.39204 L 117.46901,68.3787 H 100.57913 L 87.735847,82.047286"
       id="path61236" />
    <path
       style="font-variation-settings:normal;fill:none;fill-opacity:1;stroke:#000000;stroke-width:0.528784;stroke-linecap:butt;stroke-linejoin:miter;stroke-miterlimit:4;stroke-dasharray:none;stroke-dashoffset:0;stroke-opacity:1;stop-color:#000000"
       d="m 100.84316,81.39204 v 8.706597 h 16.36216 V 81.39204 h -16.36216"
       id="path61529" />
    <path
       style="font-variation-settings:normal;fill:none;fill-opacity:1;stroke:#000000;stroke-width:0.319767;stroke-linecap:butt;stroke-linejoin:miter;stroke-miterlimit:4;stroke-dasharray:none;stroke-dashoffset:0;stroke-opacity:1;stop-color:#000000"
       d="M 132.69643,122.23161 V 69.726732 l 0.8968,-0.953947 h 8.71344 l 1.15401,1.229057 -0.25008,3.682167 c 0,0 7.56012,-9.13718 20.24656,-4.909438"
       id="path64060" />
    <path
       style="font-variation-settings:normal;fill:none;fill-opacity:1;stroke:#000000;stroke-width:0.319767;stroke-linecap:butt;stroke-linejoin:miter;stroke-miterlimit:4;stroke-dasharray:none;stroke-dashoffset:0;stroke-opacity:1;stop-color:#000000"
       d="M 163.45823,79.68459 V 68.774571"
       id="path64062" />
    <path
       style="font-variation-settings:normal;fill:none;fill-opacity:1;stroke:#000000;stroke-width:0.319767;stroke-linecap:butt;stroke-linejoin:miter;stroke-miterlimit:4;stroke-dasharray:none;stroke-dashoffset:0;stroke-opacity:1;stop-color:#000000"
       d="m 132.70431,122.23378 0.76815,0.81818 h 9.09787 l 0.8968,-0.95396 v -6.54617"
       id="path64132" />
    <path
       style="font-variation-settings:normal;fill:none;fill-opacity:1;stroke:#000000;stroke-width:0.319767;stroke-linecap:butt;stroke-linejoin:miter;stroke-miterlimit:4;stroke-dasharray:none;stroke-dashoffset:0;stroke-opacity:1;stop-color:#000000"
       d="m 143.46677,115.55255 0.002,-23.458136 c 0,0 -3.7e-4,-17.72835 17.17141,-12.409824 0,0 2.81897,0 2.81897,0 l -0.002,-10.910019 v 0"
       id="path64284" />
    <path
       style="font-variation-settings:normal;fill:none;fill-opacity:1;stroke:#000000;stroke-width:0.300034;stroke-linecap:butt;stroke-linejoin:miter;stroke-miterlimit:4;stroke-dasharray:none;stroke-dashoffset:0;stroke-opacity:1;stop-color:#000000"
       d="m 165.0117,79.546674 7.18213,-15.960579 12.35772,39.439005 12.46279,-39.439005 7.18211,15.960579 -13.41352,43.140836 h -12.56887 z"
       id="path64513" />
    <path
       style="fill:#ff7e00;fill-opacity:1;stroke-width:0.00789495"
       d="m 99.012437,172.48217 c -62.39141,-0.17865 -57.773511,-0.0714 -61.020156,-1.64709 -2.872555,-1.40055 -4.783319,-3.82758 -5.667234,-7.19712 -0.32156,-1.28265 -0.32156,-5.23421 0.425163,-75.04419 0.42875,-40.529517 0.832469,-74.488634 0.896786,-75.464736 0.321559,-4.7229347 2.679632,-7.5233227 7.162465,-8.4733401 1.164743,-0.2500985 8.557662,-0.285827 46.81776,-0.285827 24.988079,0.00571 59.908999,0.1071905 77.601699,0.1786404 28.64487,0.1786433 32.33849,0.2143707 33.72189,0.5252087 3.0119,0.6645473 5.11238,2.2008664 6.16315,4.5028456 0.92535,2.0329464 0.99325,2.8832804 0.75386,9.9067664 -0.10714,3.56212 -0.32156,17.661616 -0.43588,31.333082 -0.53592,61.82284 -1.16474,109.63422 -1.47201,111.60285 -0.74673,4.80617 -3.81721,8.03817 -9.21364,9.69919 l -1.52917,0.47161 -19.11326,0.0286 c -10.51236,0.009 -44.30499,-0.0358 -75.094632,-0.14292 z M 70.738427,122.4274 c 1.143299,-0.67883 2.12226,-1.72567 7.504025,-8.0178 l 6.190303,-7.23536 0.35729,-1.88288 c 0.214369,-1.22907 0.321554,-2.92258 0.321554,-4.88086 -0.01898,-2.67961 -0.07143,-3.169087 -0.575227,-4.607855 -0.539497,-1.55775 -0.753879,-1.84001 -6.547591,-8.588343 -5.150595,-6.000546 -6.161001,-7.075611 -7.20641,-7.665836 l -1.214773,-0.685991 -7.8606,0.107194 -7.860599,0.107193 -2.165149,-2.533143 c -1.189743,-1.393406 -2.336629,-2.747513 -2.543853,-3.008329 -0.378719,-0.478761 -0.378719,-0.478761 2.150849,-3.404916 l 2.529566,-2.926155 h 5.498955 5.499312 l 3.304877,3.867598 c 1.818574,2.125839 3.376336,3.842945 3.465655,3.812219 0.214368,-0.07147 9.783149,-11.288027 9.783149,-11.450234 0,-0.07147 -2.200863,-2.697492 -4.89121,-5.854095 -3.433496,-4.026947 -5.160966,-5.890897 -5.796583,-6.254969 l -0.90393,-0.518062 -10.226172,-0.07146 -10.22583,-0.07147 -1.261204,0.625247 c -1.589921,0.786023 -2.450964,1.672088 -8.4444,8.680926 -3.329891,3.895109 -5.028773,6.05489 -5.502183,6.997762 l -0.685977,1.364824 -0.07144,3.9487 c -0.03571,2.490269 0.01899,4.297055 0.178637,4.892647 0.385877,1.532751 1.396982,3.351317 2.565296,4.615013 0.600245,0.650257 3.011905,3.469212 5.359978,6.264224 2.347358,2.793943 4.649342,5.364589 5.117737,5.709366 1.950766,1.436273 1.697096,1.400549 10.460197,1.407697 l 7.937417,0.0061 2.122276,2.475957 c 1.164742,1.361239 2.240166,2.665311 2.386645,2.901131 0.250098,0.38943 0.07144,0.67525 -2.182993,3.26915 l -2.447405,2.84039 -7.459008,-0.009 -7.459023,-0.0101 -3.133382,-3.73111 c -1.722098,-2.05082 -3.201256,-3.738964 -3.287004,-3.747897 -0.142921,-0.01899 -9.977874,11.375187 -9.977874,11.564187 0,0.0715 2.0258,2.47241 4.502135,5.38035 3.351322,3.93619 4.831551,5.51217 5.793727,6.1735 l 1.293364,0.88607 h 12.155505 12.155868 z m 54.176013,-6.13599 c 3.56212,-3.79936 6.50685,-6.99312 6.54509,-7.0971 0.0357,-0.10718 -6.18066,-0.17863 -15.19671,-0.17863 h -15.26604 v -2.61174 -2.61174 h 8.32687 8.32649 l 6.19101,-6.58258 6.19104,-6.582565 -0.004,-4.645022 -0.004,-4.645017 -6.20996,-6.623317 -6.2103,-6.623328 -8.56444,-0.0064 -8.56411,-0.0068 -6.162426,6.577595 c -3.540672,3.77792 -6.317492,6.577583 -6.527574,6.577583 -0.35728,0 -0.364433,0.80745 -0.364433,14.073333 V 109.3787 l 6.598678,6.91987 6.598315,6.91988 8.91138,-0.005 8.91136,-0.005 6.47543,-6.90809 z m 18.46479,6.32178 c 0.41802,-0.58594 0.42516,-0.8932 0.48948,-17.07638 l 0.0714,-16.480001 0.47878,-1.561325 c 2.16155,-7.048811 7.34111,-9.856344 14.65471,-7.940948 0.86107,0.214364 2.24731,0.410878 3.07978,0.414443 l 1.51489,0.0041 V 74.25619 68.539292 l -1.20045,-0.321555 c -5.4157,-1.482729 -10.66312,-0.8289 -15.25601,1.904322 -0.77174,0.457323 -1.84003,1.218338 -2.37595,1.689953 -0.53592,0.471613 -1.03613,0.85748 -1.11114,0.85748 -0.0714,0 -0.10716,-0.621672 -0.0714,-1.379115 0.0357,-1.225483 -0.0101,-1.457718 -0.51806,-2.09011 l -0.56809,-0.710995 h -4.52071 c -4.35422,0 -4.53893,0.01893 -5.00447,0.45375 l -0.48233,0.45375 v 26.52783 c 0,24.391388 0.0284,26.558668 0.35729,26.909868 0.32153,0.35729 0.76101,0.3823 5.20776,0.3823 h 4.86228 z m 54.22568,-20.97113 c 3.65646,-11.747078 6.688,-21.552312 6.73659,-21.789195 0.0713,-0.2501 -1.27907,-3.465648 -3.29414,-7.93777 -1.86146,-4.128771 -3.52284,-7.831306 -3.69254,-8.22789 -0.21437,-0.532353 -0.35727,-0.64311 -0.46805,-0.418022 -0.0713,0.178642 -2.87613,8.926381 -6.19423,19.465877 -3.31915,10.539813 -6.08167,19.16281 -6.13921,19.16245 -0.0713,-3.5e-4 -2.82253,-8.699453 -6.14883,-19.331449 -3.32633,-10.631671 -6.09814,-19.36369 -6.16353,-19.404063 -0.0713,-0.03572 -1.77927,3.624646 -3.81186,8.144644 l -3.69216,8.218239 6.5676,21.476559 c 3.61213,11.81217 6.61116,21.59424 6.66405,21.73787 0.0713,0.21436 1.57561,0.25011 6.54294,0.25011 h 6.44682 z M 75.512804,6.0244483 c 0,-0.2501004 -25.945957,-0.2501004 -26.737695,0 -0.28583,0.1071906 5.611503,0.1786405 13.10767,0.1786405 8.961396,0.00927 13.630025,-0.035734 13.630025,-0.1786405 z"
       id="path1011" />
    <path
       style="fill:#ff7e00;fill-opacity:1;stroke-width:0.00789495"
       d="m 101.2058,85.819114 v -3.968689 h 7.83311 7.83344 v 3.968689 3.968689 h -7.83344 -7.83311 z"
       id="path1383" />
    <path
       style="fill:#ff7e00;fill-opacity:1;stroke-width:0.00789495"
       d="m 74.990463,172.28207 c -29.632066,-0.1429 -33.677592,-0.25008 -35.396117,-0.84318 -3.219131,-1.13616 -5.677251,-3.5932 -6.812691,-6.81055 l -0.500196,-1.41484 -0.0028,-10.5488 c -0.0014,-5.80194 0.07145,-18.91461 0.214368,-29.13972 0.107149,-10.2251 0.39659,-36.685466 0.628816,-58.801652 0.250098,-22.11587 0.507339,-43.171683 0.607387,-46.790611 0.142907,-5.865174 0.214367,-6.711935 0.618102,-7.79772 1.021835,-2.8546976 3.094079,-4.5975277 6.266048,-5.2695783 1.175458,-0.2500982 10.445184,-0.2858267 60.50244,-0.2858267 69.10692,0.00836 96.2855,0.2143707 98.12802,0.7002755 3.55855,0.9646669 5.7405,3.1262318 6.44112,6.3946645 0.17864,0.79317 0.17864,4.546082 8.4e-4,14.063051 -0.14292,7.139246 -0.32155,23.461404 -0.44303,36.271103 -0.61811,67.328224 -1.10758,99.223314 -1.56133,101.205534 -0.38943,1.70782 -0.94322,2.93329 -1.9079,4.20451 -1.55418,2.05081 -3.33704,3.262 -6.45433,4.37708 l -1.99721,0.71457 -44.01453,-0.0358 c -24.20777,-0.019 -57.644177,-0.10719 -74.302892,-0.17865 z m -4.488919,-49.59599 c 0.664547,-0.40373 1.757828,-1.32196 2.429534,-2.04009 1.436282,-1.53632 11.186917,-12.85615 11.456656,-13.30061 0.410876,-0.67884 0.710993,-3.43707 0.72172,-6.63763 0.0189,-5.293477 0.0099,-5.305616 -5.960573,-12.305841 -5.387121,-6.314601 -7.324317,-8.380403 -8.474058,-9.037085 l -1.050408,-0.600235 -7.870971,0.107184 -7.870957,0.107194 -2.443818,-2.876136 c -1.875751,-2.208015 -2.400962,-2.954736 -2.258041,-3.208408 0.107148,-0.178643 1.204044,-1.529174 2.450963,-2.990467 l 2.265181,-2.658192 5.362121,-0.0096 5.362478,-0.0092 3.304875,3.797928 c 1.818574,2.09011 3.412053,3.83187 3.544245,3.873672 0.321559,0.107191 9.893555,-10.94039 9.893555,-11.440586 0,-0.578801 -9.54091,-11.50883 -10.66635,-12.219467 L 69.900943,50.734684 59.440388,50.715747 48.980189,50.69681 47.95121,51.257747 c -0.568084,0.321555 -1.782843,1.321951 -2.701059,2.258034 -1.972212,2.000789 -8.08034,9.107524 -9.860326,11.469527 -2.168706,2.876135 -2.100831,2.611745 -2.0258,7.954568 l 0.07145,4.646476 0.771723,1.554189 c 0.5931,1.193318 1.868605,2.84039 5.50754,7.090257 5.59006,6.531819 6.572237,7.576517 7.822369,8.319304 l 0.93966,0.557362 7.519755,0.142918 c 4.135917,0.07149 7.857384,0.142905 8.269335,0.142905 0.68599,0.01894 0.911071,0.214366 2.690344,2.311615 2.783251,3.283418 2.658187,3.051168 2.082973,3.840418 -0.250112,0.36442 -1.332679,1.66852 -2.375945,2.89757 l -1.893606,2.24016 -3.987638,0.006 c -2.193722,0.003 -5.542543,-0.0714 -7.44258,-0.14291 l -3.45494,-0.14291 -3.072637,-3.62392 c -1.689953,-1.99367 -3.140524,-3.623574 -3.219128,-3.623574 -0.250098,0 -1.982926,1.893594 -6.05561,6.650104 -2.197294,2.56531 -3.995511,4.7651 -3.995511,4.88729 0,0.25011 0.632403,1.04685 4.150574,5.17205 3.337036,3.91405 5.007332,5.67295 6.354299,6.69442 l 1.089708,0.82535 12.08835,7e-4 12.087977,7.1e-4 1.204046,-0.73244 z m 52.637206,-4.30564 c 6.17279,-6.61976 8.35543,-9.02712 8.35543,-9.21506 0,-0.0715 -6.86163,-0.1429 -15.24851,-0.1429 h -15.24889 v -2.61175 -2.61176 h 8.41547 8.4151 l 6.10242,-6.499316 6.10242,-6.498957 -0.008,-4.832952 -0.008,-4.832953 -6.1017,-6.516843 -6.10169,-6.516501 -8.77345,-0.0054 -8.77312,-0.005 -2.926138,3.161964 c -1.607775,1.739972 -4.498922,4.780102 -6.423252,6.757666 l -3.497821,3.596044 7.2e-4,13.96829 7.12e-4,13.968338 6.509009,6.84091 6.509,6.84092 9.10466,-0.007 9.1043,-0.007 4.49107,-4.81653 z m 20.40627,4.0459 c 0.28583,-0.686 0.35728,-2.82611 0.4323,-17.18072 l 0.10716,-16.397832 0.68239,-1.922171 c 1.29338,-3.641414 3.41923,-6.056283 6.32035,-7.183867 1.77214,-0.689553 4.75869,-0.771724 7.44332,-0.214363 1.13972,0.250087 2.76179,0.435879 3.60641,0.435879 h 1.53631 l -0.0713,-5.787278 -0.0715,-5.787285 -1.46129,-0.396586 c -2.10441,-0.571651 -6.80553,-0.718138 -8.92424,-0.285825 -3.06191,0.632392 -5.98952,2.025799 -8.44154,4.019087 l -0.86463,0.700274 -0.0714,-1.307658 c -0.0714,-0.93251 -0.21436,-1.504165 -0.56092,-1.979352 l -0.47877,-0.671694 h -4.66255 c -4.13163,0 -4.7133,0.03573 -5.10808,0.364429 l -0.4466,0.36443 0.0714,26.797263 c 0.0357,23.551059 0.10714,26.821269 0.37157,26.995639 0.17864,0.10719 2.51885,0.21436 5.28528,0.21436 l 4.97162,0.003 0.32155,-0.78246 z m 52.01374,-13.83868 c 9.3076,-29.923115 8.91459,-28.577947 8.63127,-29.539393 -0.46091,-1.564901 -6.98098,-16.004172 -7.19498,-15.933073 -0.2144,0.07146 -0.43947,0.753869 -7.84882,24.113752 -2.45097,7.726229 -4.51714,14.047614 -4.5929,14.047614 -0.0713,0 -2.85112,-8.600852 -6.16457,-19.112792 -3.31559,-10.512347 -6.09347,-19.113243 -6.17566,-19.113243 -0.1429,0 -6.62404,14.107711 -7.24285,15.77087 l -0.32155,0.836034 6.52186,21.306151 c 3.58712,11.7189 6.60975,21.4724 6.71729,21.67534 0.17863,0.35728 0.66455,0.36442 6.70228,0.32155 l 6.50686,-0.0714 z M 75.512804,6.0244483 c 0,-0.142915 -4.595742,-0.2143709 -13.368841,-0.2143709 -8.773116,0 -13.368854,0.07146 -13.368854,0.2143709 0,0.142912 4.595738,0.21437 13.368854,0.21437 8.773099,0 13.368841,-0.07146 13.368841,-0.21437 z"
       id="path1496" />
    <path
       style="fill:#ff7e00;fill-opacity:1;stroke-width:0.00789495"
       d="m 66.269521,5.8733161 c 0.375148,-0.035734 0.986093,-0.035734 1.357668,0 0.371575,0.035734 0.07143,0.071459 -0.678833,0.071459 -0.746723,0 -1.053995,-0.035734 -0.678835,-0.071459 z"
       id="path1535" />
    <path
       style="fill:#ffa808;fill-opacity:1;stroke-width:0.00789495"
       d="m 74.88613,172.28207 c -18.635928,-0.0713 -31.02332,-0.21436 -32.377429,-0.36798 -2.454534,-0.2501 -3.344178,-0.51093 -5.013402,-1.48989 -2.222308,-1.30051 -3.704324,-3.10837 -4.718288,-5.75834 l -0.55737,-1.45772 0.142921,-21.61997 c 0.07145,-11.89075 0.214368,-29.32763 0.321559,-38.74849 0.107148,-9.420821 0.357275,-31.040344 0.528768,-48.043842 0.410878,-38.378719 0.525212,-43.008403 1.111156,-44.645835 0.77888,-2.1758585 1.932908,-3.4906635 3.974793,-4.5321446 2.165135,-1.1040072 -0.878928,-1.0539869 62.800492,-1.046841 69.10692,0.00835 96.28514,0.2143706 98.12802,0.7002753 3.46923,0.9396568 5.54648,2.9047148 6.33821,5.9941493 0.28583,1.179038 0.32156,2.640327 0.10715,15.105605 -0.14292,7.59014 -0.37514,28.370127 -0.54309,46.17787 -0.37871,39.666963 -0.65381,62.089723 -0.95394,77.694823 -0.21436,10.58382 -0.28583,12.06905 -0.63239,13.46925 -0.97896,3.82579 -3.72574,6.51434 -8.27647,8.09998 l -1.97579,0.68955 -44.10776,-0.0358 c -24.25958,-0.0189 -57.690627,-0.1072 -74.292183,-0.17865 z M 70.645879,122.5746 c 1.479158,-0.96466 2.572455,-2.14012 9.113961,-9.77885 5.605431,-6.54544 5.257072,-5.74764 5.257072,-12.04119 0,-5.702925 0.28583,-5.113047 -6.04524,-12.529153 -5.533257,-6.482162 -6.77946,-7.81733 -8.103552,-8.681228 l -1.196903,-0.782451 -7.90383,0.107193 -7.903844,0.107184 -2.433105,-2.879704 c -1.761401,-2.082966 -2.386646,-2.965457 -2.261596,-3.186972 0.107147,-0.178643 1.196901,-1.518457 2.447391,-2.994039 l 2.275897,-2.686775 5.361762,-0.0054 5.361749,-0.005 3.369194,3.864381 c 1.854305,2.125839 3.44421,3.864384 3.529958,3.864384 0.178652,0 1.457729,-1.421989 5.952719,-6.674421 4.131632,-4.827618 4.029441,-4.678276 3.625707,-5.28423 C 79.921332,61.226947 72.249015,52.54209 70.949223,51.502393 l -0.975391,-0.778879 -10.523443,-0.0028 -10.523431,-0.0028 -1.089724,0.621674 c -1.286222,0.736006 -3.526387,3.026196 -7.498668,7.669099 -4.094828,4.784388 -5.911618,7.101017 -6.508289,8.297917 -0.500197,1.003968 -0.518053,1.179038 -0.518053,5.376409 0,6.121342 -0.07144,5.937344 6.121698,13.224821 5.127737,6.020915 6.963112,7.986315 8.056752,8.629424 l 0.964661,0.568085 7.520112,0.142907 c 4.135917,0.07149 7.864898,0.142915 8.286134,0.142915 0.718135,0.01894 0.907501,0.178642 2.976174,2.665326 1.214759,1.454127 2.211579,2.715339 2.211579,2.804659 0,0.17865 -1.236187,1.7364 -3.344163,4.21845 l -1.35768,1.60065 -4.177719,0.005 c -2.297341,0.003 -5.651162,-0.0714 -7.452594,-0.14292 l -3.276288,-0.14291 -3.058351,-3.62357 c -1.682811,-1.99364 -3.136953,-3.623214 -3.233416,-3.623214 -0.214381,0 -2.343785,2.358074 -5.870902,6.475414 -3.765768,4.39886 -4.217734,4.97981 -4.1009,5.27207 0.178653,0.41803 6.136715,7.39684 7.980291,9.32868 0.921802,0.96467 2.097259,2.06868 2.615327,2.4474 l 0.939648,0.6967 12.117294,0.005 12.11692,0.005 1.293363,-0.84319 z m 52.284211,-3.98013 c 6.20567,-6.66157 8.5598,-9.25473 8.5623,-9.43229 8.5e-4,-0.0714 -6.85984,-0.14292 -15.24672,-0.14292 h -15.24889 v -2.61175 -2.61174 l 8.40761,-3.5e-4 8.40796,-3.7e-4 6.10992,-6.504327 6.10992,-6.50467 -0.008,-4.827239 -0.008,-4.827239 -6.10132,-6.513984 -6.101,-6.513643 -8.77345,-0.0043 -8.77311,-0.0048 -2.818964,3.047632 c -1.550612,1.679233 -4.441394,4.717576 -6.423245,6.756238 l -3.603217,3.706796 0.0043,13.966152 0.0025,13.966554 6.507212,6.84091 6.507224,6.84092 9.10357,-0.009 9.10324,-0.009 4.28241,-4.59682 z m 20.60777,3.83829 c 0.28583,-0.67169 0.35729,-2.98689 0.43588,-17.18106 l 0.10715,-16.403912 0.6824,-1.922171 c 2.27233,-6.414277 6.85378,-8.848446 13.86513,-7.368575 1.07899,0.214363 2.65462,0.414442 3.5014,0.414442 h 1.53988 l -0.0714,-5.783348 -0.0714,-5.783356 -1.4613,-0.410873 c -1.17188,-0.321557 -2.17226,-0.414452 -5.01303,-0.432315 -3.1191,-0.01893 -3.75507,0.03573 -5.22209,0.457323 -2.21871,0.635967 -4.67612,1.868594 -6.50077,3.262003 l -1.4863,1.136161 -0.10715,-1.325522 c -0.0713,-0.896784 -0.25011,-1.532748 -0.5645,-1.968635 l -0.45737,-0.643111 h -4.66254 c -4.13021,0 -4.71365,0.03573 -5.11167,0.364431 l -0.45019,0.364429 0.0714,26.797263 c 0.0714,23.548186 0.10715,26.821276 0.37514,26.995266 0.17865,0.10719 2.51885,0.21437 5.28531,0.21437 l 4.9716,0.003 0.32156,-0.77531 z m 48.3455,-2.04366 c 0.42519,-1.37912 3.26916,-10.54345 6.31751,-20.36661 3.05121,-9.82274 5.70296,-18.432164 5.89518,-19.13172 l 0.35728,-1.271924 -1.21118,-2.904713 c -2.02579,-4.862635 -6.0331,-13.512476 -6.25535,-13.499614 -0.10713,0.0068 -0.40728,0.65383 -0.65024,1.439853 -1.81143,5.822656 -11.61744,36.534648 -11.68782,36.604678 -0.0358,0.0358 -0.14293,0.0358 -0.17865,0.001 -0.0357,-0.0358 -2.62961,-8.123513 -5.73582,-17.94662 -6.74912,-21.330537 -6.33181,-20.052891 -6.55224,-20.052891 -0.10716,0 -0.4466,0.585946 -0.77174,1.304088 -4.72328,10.358373 -6.28533,13.822957 -6.49363,14.400684 -0.21436,0.643108 0.10715,1.839997 4.80726,17.193112 2.77967,9.076057 5.71618,18.664127 6.52257,21.306607 0.80746,2.64389 1.55419,4.97016 1.65781,5.17274 0.17863,0.35729 0.66097,0.36443 6.70157,0.32156 l 6.50828,-0.0713 z M 75.303792,6.0237335 c 0,-0.142914 -4.525707,-0.214371 -13.159829,-0.214371 -8.634124,0 -13.159845,0.07146 -13.159845,0.214371 0,0.1429129 4.525721,0.2143698 13.159845,0.2143698 8.634122,0 13.159829,-0.071459 13.159829,-0.2143698 z"
       id="path1574" />
    <path
       style="fill:#ff9908;fill-opacity:1;stroke-width:0.00789495"
       d="m 101.2058,85.819114 v -3.968689 h 7.83311 7.83344 v 3.968689 3.968689 h -7.83344 -7.83311 z"
       id="path1909" />
    <path
       style="fill:#ffa808;fill-opacity:1;stroke-width:0.00789495"
       d="M 3.696603,200.01802 3.0284846,199.32846 V 118.17609 37.023824 l 0.7931672,-0.771733 0.7931673,-0.771732 h 5.1202368 5.1198791 l 0.668118,0.689556 0.668118,0.689559 v 75.090936 75.09071 l 1.311235,1.30052 1.311237,1.3005 h 75.096073 75.096424 l 1.0897,1.10401 1.08972,1.10401 v 3.76471 3.76468 l -0.68957,0.66813 -0.68953,0.66813 H 87.085942 4.3654357 Z"
       id="path1948" />
    <path
       style="fill:#ff7e08;fill-opacity:1;stroke-width:0.00139565"
       d="m 59.781591,5.8322289 c 0.142921,-0.00682 0.414463,-0.00682 0.571655,0 0.142923,0.00712 0.02829,0.00968 -0.285828,0.00968 -0.321544,0 -0.443022,-0.00571 -0.285827,-0.00968 z"
       id="path1987" />
    <path
       style="fill:#ff7e08;fill-opacity:1;stroke-width:0.00139565"
       d="m 51.205356,6.1141249 c -2.015085,-0.035734 -2.461693,-0.07146 -1.182615,-0.1071905 1.275504,-0.028596 24.34712,-0.035734 24.83623,-0.00712 0.35729,0.018932 0.382305,0.028596 0.250099,0.07146 -0.214369,0.035734 -13.599652,0.1071905 -18.610912,0.1071905 -2.022227,-0.00254 -4.397087,-0.018942 -5.280301,-0.035734 z"
       id="path2063" />
    <path
       style="fill:#ff7e08;fill-opacity:1;stroke-width:0.00139565"
       d="m 50.677286,6.0934032 c -0.539497,-0.00856 -0.832468,-0.028229 -0.818183,-0.035735 0.019,-0.028596 4.415675,-0.035734 12.621419,-0.028596 6.929525,0.00428 12.175153,0.018932 11.657456,0.028596 -1.018263,0.028229 -22.076923,0.07146 -23.459263,0.035735 z"
       id="path2102" />
    <path
       style="fill:#ff7e08;fill-opacity:1;stroke-width:0.00139565"
       d="m 53.956434,5.8947529 c 2.915443,-0.035734 12.174453,-0.035734 12.148737,0.00214 -0.019,0.028229 -2.365231,0.035734 -6.953469,0.028229 -4.345284,-0.00428 -6.283193,-0.018942 -5.195268,-0.028229 z"
       id="path2141" />
  </g>
</svg>
